<?xml version="1.0" encoding="UTF-8"?>
<svg width="294px" height="60px" viewBox="0 0 294 60" version="1.1" xmlns="http://www.w3.org/2000/svg" xmlns:xlink="http://www.w3.org/1999/xlink">
    <!-- Generator: Sketch 50 (54983) - http://www.bohemiancoding.com/sketch -->
    <title>Group</title>
    <desc>Created with Sketch.</desc>
    <defs>
        <polygon id="path-1" points="0 0.235017386 67.5171886 0.235017386 67.5171886 59.4861026 0 59.4861026"></polygon>
        <polygon id="path-3" points="0 59.7651282 293.558233 59.7651282 293.558233 0.512820513 0 0.512820513"></polygon>
    </defs>
    <g id="Page-1" stroke="none" stroke-width="1" fill="none" fill-rule="evenodd">
        <g id="Weekend-For-Good" transform="translate(-41.000000, -63.000000)">
            <g id="Top-Nav" transform="translate(41.000000, 63.000000)">
                <g id="Group">
                    <path d="M67.5171767,20.4005128 C67.5171767,20.0235897 67.5038828,19.6517949 67.4844532,19.2820513 C67.5038828,19.6517949 67.5171767,20.0235897 67.5171767,20.4005128" id="Fill-3" fill="#FEFEFE"></path>
                    <path d="M36.6791332,5.61584615 C36.4393315,5.85174359 36.201575,6.09482051 35.9684202,6.34866667 C36.201575,6.09482051 36.4393315,5.85174359 36.6791332,5.61584615" id="Fill-15" fill="#FEFEFE"></path>
                    <path d="M35.9251638,6.39733333 C35.7068369,6.63630769 35.4915777,6.88502564 35.2788751,7.13989744 C35.4915777,6.88502564 35.7068369,6.63630769 35.9251638,6.39733333" id="Fill-17" fill="#FEFEFE"></path>
                    <path d="M38.3258911,4.16328205 C38.0998946,4.34071795 37.875432,4.52635897 37.6535259,4.71764103 C37.875432,4.52635897 38.0998946,4.34071795 38.3258911,4.16328205" id="Fill-19" fill="#FEFEFE"></path>
                    <path d="M37.4291144,4.91548718 C37.2476014,5.07702564 37.0676223,5.24369231 36.8886657,5.41446154 C37.0676223,5.24369231 37.2476014,5.07702564 37.4291144,4.91548718" id="Fill-21" fill="#FEFEFE"></path>
                    <path d="M3.60960417,32.5061026 C3.79980939,32.8153333 3.99563896,33.1209744 4.19709287,33.4245641 C3.99563896,33.1214872 3.79980939,32.8153333 3.60960417,32.5061026" id="Fill-39" fill="#FEFEFE"></path>
                    <path d="M2.84367026,31.1930256 C3.05330504,31.577641 3.27367722,31.9571282 3.50120765,32.3335385 C3.27316591,31.9571282 3.05330504,31.577641 2.84367026,31.1930256" id="Fill-41" fill="#FEFEFE"></path>
                    <path d="M2.27095826,30.0772308 C2.44480174,30.4351795 2.62580348,30.7900513 2.8160087,31.1408205 C2.62580348,30.7900513 2.44480174,30.4351795 2.27095826,30.0772308" id="Fill-43" fill="#FEFEFE"></path>
                    <path d="M1.74564417,28.917641 C1.8658007,29.2017436 1.99209287,29.4837949 2.12349809,29.7637949 C1.99209287,29.4837949 1.8658007,29.2017436 1.74564417,28.917641" id="Fill-45" fill="#FEFEFE"></path>
                    <path d="M7.78992626,37.9898974 C8.06040626,38.288359 8.33446539,38.5837436 8.61261496,38.8760513 C8.33446539,38.5837436 8.06040626,38.288359 7.78992626,37.9898974" id="Fill-47" fill="#FEFEFE"></path>
                    <path d="M5.12608174,34.7504615 C5.91553565,35.8222564 6.76941391,36.8566154 7.66879826,37.8566154 C6.76941391,36.8566154 5.91553565,35.8217436 5.12608174,34.7504615" id="Fill-49" fill="#FEFEFE"></path>
                    <path d="M4.37160104,33.6822564 C4.5658967,33.9684103 4.76530539,34.252 4.96880452,34.5330256 C4.76530539,34.252 4.5658967,33.9684103 4.37160104,33.6822564" id="Fill-51" fill="#FEFEFE"></path>
                    <path d="M5.11304348e-05,20.612359 C0.000562434783,21.0005641 0.0118111304,21.3851795 0.033285913,21.7662051 C0.0368650435,21.8195385 0.0440233043,21.8718462 0.0476024348,21.9251795 C0.0189693913,21.4918462 0.000562434783,21.0549231 5.11304348e-05,20.612359" id="Fill-53" fill="#FEFEFE"></path>
                    <path d="M35.0748136,7.39092308 C34.9096623,7.59451282 34.7465562,7.80323077 34.5854953,8.0165641 C34.7465562,7.80323077 34.9096623,7.59451282 35.0748136,7.39092308" id="Fill-55" fill="#FEFEFE"></path>
                    <path d="M67.4682449,19.0110256 C67.4442136,18.6479487 67.4150692,18.2874359 67.3731423,17.9320513 C67.4150692,18.2869231 67.4442136,18.6479487 67.4682449,19.0110256" id="Fill-57" fill="#FEFEFE"></path>
                    <path d="M0.0813996522,22.3261026 C0.107476174,22.6281538 0.13764313,22.9286667 0.177013565,23.2266154 C0.13764313,22.9286667 0.107476174,22.6281538 0.0813996522,22.3261026" id="Fill-59" fill="#FEFEFE"></path>
                    <path d="M0.76797913,26.1509744 C0.882511304,26.5607179 1.0108487,26.9648205 1.14787826,27.3658462 C1.0108487,26.9648205 0.882511304,26.5607179 0.76797913,26.1509744" id="Fill-61" fill="#FEFEFE"></path>
                    <path d="M1.25934261,27.6726154 C1.36569391,27.9695385 1.47715826,28.2649231 1.59526957,28.5572308 C1.47715826,28.2649231 1.36569391,27.9695385 1.25934261,27.6726154" id="Fill-63" fill="#FEFEFE"></path>
                    <path d="M0.468917217,24.9294872 C0.552259826,25.3146154 0.644805913,25.6966667 0.749112,26.0741026 C0.644805913,25.6966667 0.552259826,25.3146154 0.468917217,24.9294872" id="Fill-65" fill="#FEFEFE"></path>
                    <path d="M0.239188174,23.6657436 C0.284182957,23.9606154 0.335313391,24.2534359 0.393090783,24.5436923 C0.335313391,24.2534359 0.284182957,23.9606154 0.239188174,23.6657436" id="Fill-67" fill="#FEFEFE"></path>
                    <path d="M34.3887454,8.27861538 C34.1709297,8.57502564 33.9561819,8.87707692 33.7465471,9.19194872 C33.9561819,8.87707692 34.1709297,8.57502564 34.3887454,8.27861538" id="Fill-69" fill="#FEFEFE"></path>
                    <path d="M61.1063917,5.51646154 C60.4028369,4.86774359 59.6573551,4.27492308 58.8771047,3.74210256 C59.6573551,4.27492308 60.4033482,4.86774359 61.1063917,5.51646154" id="Fill-75" fill="#FEFEFE"></path>
                    <path d="M67.3728866,17.9237949 C67.3294257,17.5535385 67.2742049,17.1889231 67.2128483,16.8268718 C67.2747162,17.1889231 67.3294257,17.5535385 67.3728866,17.9237949" id="Fill-77" fill="#FEFEFE"></path>
                    <path d="M64.9292097,10.3542051 C64.5303923,9.64394872 64.0901593,8.966 63.6156689,8.32087179 C64.089648,8.96548718 64.5303923,9.64394872 64.9292097,10.3542051" id="Fill-79" fill="#FEFEFE"></path>
                    <path d="M67.1761367,16.6227179 C67.1117123,16.2678462 67.0411523,15.9155385 66.9593437,15.5693846 C67.0411523,15.9155385 67.1117123,16.2678462 67.1761367,16.6227179" id="Fill-81" fill="#FEFEFE"></path>
                    <path d="M63.563567,8.25107692 C63.08652,7.60851282 62.5752157,6.99928205 62.0316991,6.42697436 C62.5752157,6.99928205 63.08652,7.60902564 63.563567,8.25107692" id="Fill-89" fill="#FEFEFE"></path>
                    <g id="Group-97" transform="translate(0.000000, 0.277949)">
                        <mask id="mask-2" fill="white">
                            <use xlink:href="#path-1"></use>
                        </mask>
                        <g id="Clip-96"></g>
                        <path d="M9.65439757,39.6645641 L19.2433993,34.1430256 L19.2433993,29.4707179 C18.0561506,29.1896923 17.1695489,28.1368718 17.1695489,26.8727692 C17.1695489,25.3937949 18.3787837,24.1948205 19.8702584,24.1948205 C21.3617332,24.1948205 22.570968,25.3937949 22.570968,26.8727692 C22.570968,28.1466154 21.6726063,29.2071282 20.471041,29.4789231 L20.471041,34.8568718 L20.4613263,34.8568718 L20.4628602,34.8604615 L10.5686097,40.5578974 C11.8049437,41.7394359 13.0826932,42.8661026 14.3609541,43.9450769 L26.6808323,36.8517436 L26.6808323,34.6414872 C25.494095,34.3594359 24.6085158,33.3071282 24.6085158,32.0440513 C24.6085158,30.5650769 25.8172393,29.3661026 27.3087141,29.3661026 C28.8001889,29.3661026 30.009935,30.5650769 30.009935,32.0440513 C30.009935,33.3178974 29.1105506,34.3794359 27.9079628,34.6502051 L27.9079628,37.5655897 L27.898248,37.5655897 L27.9002932,37.5691795 L15.3677123,44.7850769 C16.2502237,45.5132821 17.1281332,46.2189231 17.9881471,46.902 L23.9750097,43.6245641 L23.977055,43.627641 L23.982168,43.6189231 L29.3508637,46.9204615 C29.8069471,46.5717436 30.3714271,46.3558462 30.9916393,46.3558462 C32.4831141,46.3558462 33.6923489,47.5548205 33.6923489,49.0337949 C33.6923489,50.5127692 32.4831141,51.7117436 30.9916393,51.7117436 C29.5001645,51.7117436 28.2909297,50.5127692 28.2909297,49.0337949 C28.2909297,48.6189231 28.3942132,48.2312308 28.5639663,47.8804615 L23.9479106,45.042 L19.036321,47.7312308 C19.2648741,47.9117436 19.4924045,48.0912308 19.7178897,48.2686667 C21.0922758,49.3522564 22.312248,50.3025128 23.4033715,51.1455897 C23.8390028,51.4830256 24.2552045,51.8030256 24.6514654,52.107641 C25.0477263,52.4122564 25.4260915,52.7009744 25.7860497,52.976359 C26.146008,53.2517436 26.4890932,53.5127692 26.8158167,53.762 C27.3061576,54.1358462 27.7612184,54.482 28.1866237,54.8061026 C28.8952915,55.3471282 29.5206167,55.8266154 30.0886758,56.2712308 C30.9972637,56.9830256 31.7580845,57.6050769 32.4769784,58.2435385 C32.566968,58.3235385 32.655935,58.4040513 32.7443906,58.4840513 C33.0997471,58.8066154 33.4469228,59.1358462 33.8002341,59.4861026 C34.2384219,59.047641 34.6658723,58.6368718 35.1086619,58.2307179 C35.1971176,58.1496923 35.2860845,58.0686667 35.3765854,57.9871282 C35.6465541,57.7440513 35.9241923,57.5009744 36.2146132,57.2517436 C36.4089089,57.0861026 36.6088289,56.9178974 36.8159071,56.7455897 C37.0234967,56.5732821 37.2387558,56.3968718 37.4632184,56.2153333 C37.5751941,56.1245641 37.6902376,56.0322564 37.8073263,55.9384103 C38.0415037,55.7512308 38.2859071,55.5573846 38.5420706,55.3558462 C38.7987454,55.1543077 39.0666689,54.9450769 39.3483976,54.7266154 C41.3220323,53.1958462 43.9629193,51.2086667 47.8590584,48.236359 C56.4269854,41.6861026 67.5304706,32.5435385 67.5171767,20.1230256 L67.5171767,20.1225128 C67.5171767,19.7455897 67.5038828,19.3737949 67.4844532,19.0040513 C67.4793402,18.9132821 67.4742271,18.8230256 67.4680915,18.7332821 C67.4440602,18.3702051 67.4149158,18.0091795 67.3735002,17.6537949 C67.3735002,17.6512308 67.3729889,17.6486667 67.3729889,17.6455897 C67.329528,17.2758462 67.2743071,16.9107179 67.2124393,16.5491795 C67.2006793,16.4809744 67.188408,16.4127692 67.1761367,16.3445641 C67.1117123,15.9896923 67.0411523,15.6373846 66.9593437,15.2912308 L66.9593437,15.2907179 L59.8169332,19.2332821 L59.7187628,24.7071282 C60.9193054,24.9794359 61.8171558,26.0399487 61.8171558,27.3127692 C61.8171558,28.7917436 60.6074097,29.9902051 59.115935,29.9902051 C57.6244602,29.9902051 56.4157367,28.7917436 56.4157367,27.3127692 C56.4157367,26.0481538 57.3023384,24.9953333 58.491121,24.7143077 L58.6025854,18.4968718 L58.6128115,18.4968718 L58.6112776,18.4937949 L66.6280184,14.0686667 L66.6280184,14.0681538 C66.3222584,13.0584103 65.9428706,12.0907179 65.4980358,11.1696923 L51.4105784,18.5537949 L51.4085332,18.5507179 L51.4029089,18.5594359 L48.9854619,17.0112308 C48.501768,17.4640513 47.8534341,17.7466154 47.1360741,17.7466154 C45.6445993,17.7466154 44.4348532,16.547641 44.4348532,15.0686667 C44.4348532,13.5896923 45.6445993,12.3907179 47.1360741,12.3907179 C48.6275489,12.3907179 49.8362723,13.5896923 49.8362723,15.0686667 C49.8362723,15.3922564 49.7692915,15.6984103 49.6634515,15.9850769 L51.4637541,17.1373846 L64.9299767,10.0778974 C64.9294654,10.0773846 64.9294654,10.0768718 64.9289541,10.076359 C64.5301367,9.36558974 64.0899037,8.68764103 63.6154132,8.04251282 C63.5980289,8.0194359 63.5811558,7.99635897 63.5637715,7.97328205 C63.0867245,7.33071795 62.5754202,6.72148718 62.0313923,6.14917949 C62.0313923,6.14815385 62.0303697,6.14764103 62.0298584,6.14661538 L53.1346967,10.8091795 L53.1331628,10.8061026 L53.1275384,10.8143077 L48.6357297,7.93892308 C48.1484567,8.41482051 47.4806932,8.70969231 46.742881,8.70969231 C45.2514063,8.70969231 44.0426828,7.51071795 44.0426828,6.03225641 C44.0426828,4.55328205 45.2514063,3.35430769 46.742881,3.35430769 C48.2343558,3.35430769 49.4430793,4.55328205 49.4430793,6.03225641 C49.4430793,6.33584615 49.3812115,6.62302564 49.2876428,6.89584615 L53.1878723,9.39225641 L61.108488,5.24046154 C61.1079767,5.23994872 61.1069541,5.2394359 61.1064428,5.23841026 C60.4033993,4.58969231 59.6574063,3.99687179 58.8771558,3.46405128 C58.874088,3.46148718 58.8705089,3.4594359 58.867441,3.45738462 C58.091281,2.92815385 57.281375,2.45892308 56.4453923,2.05276923 C56.4336323,2.04712821 56.4218723,2.04148718 56.4101123,2.03584615 C55.5833332,1.63635897 54.7304776,1.29994872 53.8602376,1.02969231 C53.8351837,1.02148718 53.8101297,1.01379487 53.7855871,1.00610256 C52.9271071,0.743538462 52.0522654,0.545589744 51.1666863,0.415846154 C51.1257819,0.410205128 51.0853889,0.404051282 51.0444845,0.398923077 C50.7668463,0.359948718 50.4886967,0.327128205 50.2100358,0.302 C50.1987871,0.300974359 50.1870271,0.299948718 50.1757784,0.298923077 C49.8730863,0.27225641 49.5693715,0.253282051 49.2656567,0.243025641 C49.254408,0.243025641 49.2436706,0.243025641 49.2329332,0.242512821 C48.9583628,0.233794872 48.683281,0.233282051 48.4081993,0.237897436 C48.3524671,0.238923077 48.2962237,0.240461538 48.2404915,0.242 C47.9858619,0.249179487 47.7312323,0.261487179 47.4760915,0.280461538 C47.4392776,0.283025641 47.4024637,0.284564103 47.366161,0.287641026 C47.0706271,0.311230769 46.7750932,0.342512821 46.4795593,0.382512821 C46.4570619,0.385589744 46.4340532,0.390205128 46.4115558,0.393282051 C46.1507906,0.429692308 45.8905367,0.473282051 45.6307941,0.522512821 C45.5622793,0.535333333 45.4937645,0.549179487 45.4247384,0.563025641 C45.192095,0.610205128 44.9599628,0.663025641 44.7278306,0.720461538 C44.6720984,0.734307692 44.6168776,0.746615385 44.5616567,0.760974359 C44.2763489,0.835333333 43.991041,0.916358974 43.7077784,1.00712821 C43.6781228,1.01635897 43.6489784,1.02764103 43.6198341,1.03687179 C43.3718515,1.11738462 43.1248915,1.20507692 42.8789541,1.29841026 C42.803281,1.32712821 42.7286306,1.35687179 42.6529576,1.38661538 C42.4382097,1.47123077 42.2244845,1.56148718 42.0117819,1.65635897 C41.9453123,1.68558974 41.8793541,1.71379487 41.8133958,1.74405128 C41.5403593,1.86969231 41.2688567,2.002 40.9993993,2.14405128 C40.9682097,2.16097436 40.9375315,2.17892308 40.9063419,2.19584615 C40.6706306,2.322 40.4364532,2.45533333 40.2038097,2.59430769 C40.1255802,2.64097436 40.0478619,2.68917949 39.9701437,2.73738462 C39.7732915,2.85892308 39.5774619,2.98610256 39.3831663,3.11738462 C39.3115837,3.16558974 39.240001,3.21225641 39.169441,3.26148718 C38.9117437,3.44097436 38.6560915,3.62661538 38.4029958,3.82302564 C38.3769193,3.84302564 38.3518654,3.86507692 38.3257889,3.88507692 C38.0997923,4.06302564 37.8753297,4.24815385 37.6534237,4.43994872 C37.5782619,4.5045641 37.5036115,4.57123077 37.428961,4.63738462 C37.247448,4.79892308 37.0674689,4.96558974 36.8890237,5.13635897 C36.818975,5.20353846 36.748415,5.26917949 36.6788776,5.33789744 C36.4395871,5.57379487 36.2018306,5.81687179 35.9686758,6.07071795 C35.9543593,6.08661538 35.9400428,6.10353846 35.925215,6.1194359 C35.706888,6.35841026 35.4916289,6.60712821 35.2789263,6.862 C35.2104115,6.9445641 35.1429193,7.02917949 35.0749158,7.11276923 C34.9097645,7.31635897 34.7466584,7.52507692 34.5855976,7.73841026 C34.5201506,7.82558974 34.453681,7.91174359 34.3887454,8.00046154 C34.1709297,8.29687179 33.9561819,8.59892308 33.7465471,8.91379487 C32.6907037,7.33482051 31.5356671,5.99020513 30.3095593,4.86661538 C29.9015384,4.49174359 29.4843141,4.14148718 29.0614654,3.81482051 C28.8497854,3.65174359 28.6360602,3.49430769 28.4213123,3.34302564 C27.9913054,3.04046154 27.5551628,2.76148718 27.1133958,2.50558974 C26.4512567,2.12148718 25.7768463,1.78969231 25.0937437,1.50712821 C24.6391941,1.3194359 24.1795315,1.15328205 23.718335,1.00917949 C23.2566271,0.864564103 22.7918515,0.742512821 22.3260532,0.640461538 C20.9276358,0.336358974 19.5138793,0.221487179 18.1129054,0.282 C16.2451106,0.362 14.3987906,0.753282051 12.6414376,1.4194359 C12.2017158,1.58610256 11.7681297,1.76969231 11.3406793,1.97020513 C10.6995037,2.27071795 10.0731558,2.60866667 9.46521496,2.982 C9.05975061,3.23123077 8.66246713,3.49635897 8.27387583,3.77635897 C7.88579583,4.05635897 7.5069193,4.35174359 7.13775757,4.66148718 C6.76859583,4.97174359 6.40966017,5.29635897 6.06248452,5.63533333 C5.88864104,5.8045641 5.71735409,5.97738462 5.54964626,6.15379487 C5.04498887,6.68302564 4.5669193,7.24302564 4.11850539,7.83276923 C1.57834539,11.1743077 -0.00516417391,15.4553333 -5.11304348e-05,20.3343077 C0.000460173913,20.7768718 0.0188671304,21.2137949 0.0475001739,21.6471282 C0.0561923478,21.7814872 0.0699975652,21.9148205 0.0812462609,22.0481538 C0.107322783,22.3502051 0.138001043,22.6507179 0.176860174,22.9486667 C0.195778435,23.0953333 0.216741913,23.242 0.239239304,23.387641 C0.284234087,23.6825128 0.335364522,23.9753333 0.393141913,24.2661026 C0.41870713,24.3943077 0.441204522,24.5240513 0.468814957,24.6517436 C0.552157565,25.0368718 0.644703652,25.4184103 0.749009739,25.796359 C0.756168,25.8214872 0.760769739,25.847641 0.767928,25.8727692 C0.882460174,26.2825128 1.01079757,26.6871282 1.14782713,27.0881538 C1.18361843,27.1907179 1.22247757,27.2922564 1.25929148,27.3948205 C1.36564278,27.6917436 1.47710713,27.9871282 1.59521843,28.2789231 C1.64430365,28.3999487 1.69492278,28.5199487 1.74554191,28.6394359 C1.86620974,28.9240513 1.99250191,29.2055897 2.12339583,29.4855897 C2.17248104,29.5902051 2.22054365,29.6953333 2.27116278,29.7994359 C2.44449496,30.1568718 2.626008,30.5122564 2.81621322,30.8625128 C2.825928,30.8799487 2.83410887,30.8978974 2.84382365,30.9148205 C3.05345843,31.2994359 3.2733193,31.6794359 3.50136104,32.0553333 C3.53664104,32.1132821 3.57345496,32.1702051 3.60975757,32.2281538 C3.79996278,32.5373846 3.99579235,32.8435385 4.19724626,33.1466154 C4.25451235,33.2327692 4.31331235,33.3184103 4.37160104,33.4040513 C4.5658967,33.6907179 4.76479409,33.9743077 4.96880452,34.2553333 C5.02095757,34.327641 5.07311061,34.4004615 5.12628626,34.4722564 C5.91574017,35.5440513 6.76910713,36.5789231 7.66849148,37.5784103 C7.70888452,37.6235385 7.74927757,37.6671282 7.79018191,37.7117436 C8.06066191,38.0102051 8.33472104,38.3055897 8.61287061,38.5978974 C8.64610539,38.6332821 8.67985148,38.6686667 8.71359757,38.7040513 C9.023448,39.027641 9.33687757,39.3481538 9.65439757,39.6645641" id="Fill-95" fill="#7BCDD1" mask="url(#mask-2)"></path>
                    </g>
                    <path d="M29.0889736,32.2910256 C29.0889736,31.3048718 28.2918501,30.5058974 27.3091231,30.5058974 C26.3263962,30.5058974 25.5292727,31.3048718 25.5292727,32.2910256 C25.5292727,33.2766667 26.3263962,34.0761538 27.3091231,34.0761538 C28.2918501,34.0761538 29.0889736,33.2766667 29.0889736,32.2910256" id="Fill-98" fill="#7BCDD1"></path>
                    <path d="M30.9918438,51.0660513 C31.9745708,51.0660513 32.771183,50.2665641 32.771183,49.2809231 C32.771183,48.2952821 31.9745708,47.4957949 30.9918438,47.4957949 C30.0086056,47.4957949 29.2119934,48.2952821 29.2119934,49.2809231 C29.2119934,50.2665641 30.0086056,51.0660513 30.9918438,51.0660513" id="Fill-100" fill="#7BCDD1"></path>
                    <path d="M21.6500577,27.12 C21.6500577,26.134359 20.8529343,25.3348718 19.8707186,25.3348718 C18.8874803,25.3348718 18.0903569,26.134359 18.0903569,27.12 C18.0903569,28.1061538 18.8874803,28.9051282 19.8707186,28.9051282 C20.8529343,28.9051282 21.6500577,28.1061538 21.6500577,27.12" id="Fill-102" fill="#7BCDD1"></path>
                    <path d="M46.7429322,4.49405128 C45.7596939,4.49405128 44.9630817,5.29353846 44.9630817,6.27917949 C44.9630817,7.26533333 45.7596939,8.06430769 46.7429322,8.06430769 C47.7261704,8.06430769 48.5227826,7.26533333 48.5227826,6.27917949 C48.5227826,5.29353846 47.7261704,4.49405128 46.7429322,4.49405128" id="Fill-104" fill="#7BCDD1"></path>
                    <path d="M57.3365447,27.5596923 C57.3365447,28.5458462 58.1336682,29.3448205 59.1158838,29.3448205 C60.0991221,29.3448205 60.8962456,28.5458462 60.8962456,27.5596923 C60.8962456,26.5740513 60.0991221,25.7745641 59.1158838,25.7745641 C58.1336682,25.7745641 57.3365447,26.5740513 57.3365447,27.5596923" id="Fill-106" fill="#7BCDD1"></path>
                    <path d="M47.1359207,13.5307692 C46.1526824,13.5307692 45.3560703,14.3302564 45.3560703,15.3158974 C45.3560703,16.3020513 46.1526824,17.1010256 47.1359207,17.1010256 C48.1186477,17.1010256 48.9152598,16.3020513 48.9152598,15.3158974 C48.9152598,14.3302564 48.1186477,13.5307692 47.1359207,13.5307692" id="Fill-108" fill="#7BCDD1"></path>
                    <polygon id="Fill-110" fill="#FEFEFE" points="77.7178007 37.0644103 79.430159 37.0644103 82.1088824 46.7828718 82.1431398 46.7828718 84.9936616 37.0644103 86.8773068 37.0644103 89.7273172 46.7828718 89.7615746 46.7828718 92.4413207 37.0644103 94.1531677 37.0644103 90.6261903 49.2213333 88.8800859 49.2213333 85.9523572 39.2967179 85.9186111 39.2967179 83.0082668 49.2213333 81.2621624 49.2213333"></polygon>
                    <polygon id="Fill-112" fill="#FEFEFE" points="95.7277805 37.0644103 103.55176 37.0644103 103.55176 38.6100513 97.371624 38.6100513 97.371624 42.2326154 103.123798 42.2326154 103.123798 43.7782564 97.371624 43.7782564 97.371624 47.6756923 103.859565 47.6756923 103.859565 49.2213333 95.7277805 49.2213333"></polygon>
                    <path d="M106.547594,46.6803077 C106.844151,47.1264615 107.223538,47.4556923 107.686269,47.6674872 C108.148488,47.8792821 108.624512,47.9849231 109.115365,47.9849231 C109.389935,47.9849231 109.668596,47.942359 109.954415,47.8562051 C110.239723,47.7705641 110.499465,47.6418462 110.733643,47.4700513 C110.967309,47.2982564 111.158537,47.0864615 111.307326,46.8346667 C111.455605,46.5833846 111.529232,46.2910769 111.529232,45.9592821 C111.529232,45.4900513 111.380954,45.1315897 111.084398,44.8859487 C110.78733,44.6397949 110.419191,44.433641 109.980491,44.2674872 C109.54077,44.1018462 109.061166,43.9413333 108.541681,43.7864615 C108.022707,43.6326154 107.543104,43.4177436 107.103893,43.1433846 C106.664683,42.868 106.296544,42.4992821 105.999987,42.0351795 C105.702919,41.5715897 105.554641,40.9449231 105.554641,40.1551795 C105.554641,39.8008205 105.631848,39.4228718 105.785751,39.0218462 C105.940165,38.6213333 106.182011,38.2551795 106.513848,37.9233846 C106.844151,37.5910769 107.269045,37.3131282 107.789041,37.0905641 C108.308015,36.8669744 108.932829,36.7551795 109.663483,36.7551795 C110.325622,36.7551795 110.958617,36.8469744 111.564001,37.0305641 C112.168363,37.213641 112.699097,37.5859487 113.156203,38.1459487 L111.820676,39.3654359 C111.615131,39.0449231 111.324199,38.7874872 110.947368,38.5926154 C110.570537,38.3982564 110.142575,38.3008205 109.663483,38.3008205 C109.206888,38.3008205 108.8275,38.3608205 108.524808,38.4813333 C108.222116,38.6013333 107.979758,38.7556923 107.797222,38.9449231 C107.614686,39.133641 107.486349,39.3372308 107.41221,39.5541538 C107.338071,39.7715897 107.301257,39.9721026 107.301257,40.1551795 C107.301257,40.6700513 107.449024,41.0654359 107.746091,41.3403077 C108.042648,41.6146667 108.410787,41.8382564 108.850509,42.0100513 C109.289208,42.1818462 109.768811,42.3356923 110.288297,42.4731282 C110.807782,42.6105641 111.287385,42.802359 111.726596,43.0485128 C112.165295,43.2946667 112.533945,43.6269744 112.830502,44.0444103 C113.127058,44.462359 113.275848,45.0377436 113.275848,45.7700513 C113.275848,46.353641 113.164384,46.8808205 112.941966,47.3500513 C112.719038,47.8192821 112.419413,48.2141538 112.043093,48.5346667 C111.666773,48.8551795 111.221427,49.1013333 110.708078,49.2731282 C110.194217,49.4449231 109.64661,49.5305641 109.064234,49.5305641 C108.288074,49.5305641 107.551796,49.3931282 106.855911,49.1182564 C106.159514,48.8438974 105.605771,48.4203077 105.194683,47.8474872 L106.547594,46.6803077 Z" id="Fill-114" fill="#FEFEFE"></path>
                    <polygon id="Fill-116" fill="#FEFEFE" points="118.240153 38.6098974 114.336856 38.6098974 114.336856 37.0642564 123.787294 37.0642564 123.787294 38.6098974 119.883997 38.6098974 119.883997 49.2211795 118.240153 49.2211795"></polygon>
                    <polygon id="Fill-118" fill="#FEFEFE" points="130.172923 37.0644103 132.621048 37.0644103 136.472704 46.268 136.54173 46.268 140.359639 37.0644103 142.807253 37.0644103 142.807253 49.2213333 141.163921 49.2213333 141.163921 39.228 141.129664 39.228 137.038206 49.2213333 135.942481 49.2213333 131.850512 39.228 131.816766 39.228 131.816766 49.2213333 130.172923 49.2213333"></polygon>
                    <mask id="mask-4" fill="white">
                        <use xlink:href="#path-3"></use>
                    </mask>
                    <g id="Clip-121"></g>
                    <polygon id="Fill-120" fill="#FEFEFE" mask="url(#mask-4)" points="145.803037 49.2215385 147.44688 49.2215385 147.44688 37.0646154 145.803037 37.0646154"></polygon>
                    <path d="M159.002716,39.691641 C158.660654,39.2454872 158.226556,38.9018974 157.701958,38.6613846 C157.176848,38.4208718 156.634354,38.3008718 156.074987,38.3008718 C155.390862,38.3008718 154.771673,38.4295897 154.21793,38.6870256 C153.664187,38.9449744 153.19072,39.2962564 152.796504,39.7434359 C152.403311,40.1895897 152.097551,40.7131795 151.880758,41.3142051 C151.663965,41.9152308 151.55608,42.5593333 151.55608,43.246 C151.55608,43.8875385 151.658341,44.4936923 151.863885,45.066 C152.068918,45.6388205 152.365986,46.1418974 152.754066,46.5772821 C153.142146,47.0121538 153.615614,47.3557436 154.175492,47.6075385 C154.733836,47.8593333 155.367854,47.9849744 156.074987,47.9849744 C156.771384,47.9849744 157.381881,47.8424103 157.906991,47.5557436 C158.432101,47.2695897 158.877447,46.8690769 159.242518,46.3536923 L160.629687,47.4013846 C160.537652,47.5270256 160.377614,47.7075385 160.149572,47.9424103 C159.92153,48.1767692 159.619349,48.411641 159.242518,48.646 C158.865687,48.8808718 158.41216,49.0870256 157.881937,49.2644615 C157.351203,49.4418974 156.737127,49.5306154 156.041241,49.5306154 C155.082546,49.5306154 154.21793,49.3470256 153.447394,48.9808718 C152.676859,48.6147179 152.020855,48.1342051 151.478361,47.5388205 C150.936379,46.9439487 150.522734,46.2711282 150.237426,45.5208718 C149.952118,44.7711282 149.809464,44.0131795 149.809464,43.246 C149.809464,42.3075385 149.963367,41.440359 150.271683,40.6444615 C150.579488,39.8490769 151.010518,39.1624103 151.564261,38.5844615 C152.117492,38.0065128 152.782699,37.5567692 153.558859,37.2362564 C154.334507,36.9157436 155.190942,36.7552308 156.126629,36.7552308 C156.925798,36.7552308 157.71065,36.9101026 158.480674,37.2193333 C159.250699,37.5280513 159.881648,38.0034359 160.372501,38.6444615 L159.002716,39.691641 Z" id="Fill-122" fill="#FEFEFE" mask="url(#mask-4)"></path>
                    <polygon id="Fill-123" fill="#FEFEFE" mask="url(#mask-4)" points="162.614775 37.0644103 164.258618 37.0644103 164.258618 42.1126154 170.541526 42.1126154 170.541526 37.0644103 172.184858 37.0644103 172.184858 49.2213333 170.541526 49.2213333 170.541526 43.6577436 164.258618 43.6577436 164.258618 49.2213333 162.614775 49.2213333"></polygon>
                    <polygon id="Fill-124" fill="#FEFEFE" mask="url(#mask-4)" points="175.300696 49.2215385 176.944539 49.2215385 176.944539 37.0646154 175.300696 37.0646154"></polygon>
                    <path d="M190.383509,42.422 L190.383509,48.4148205 C190.086441,48.5973846 189.750003,48.7573846 189.373172,48.8953333 C188.996852,49.0327692 188.605193,49.1496923 188.20024,49.2471282 C187.795287,49.3440513 187.384709,49.4158462 186.967996,49.462 C186.551283,49.5071282 186.160135,49.5302051 185.795064,49.5302051 C184.768365,49.5302051 183.852619,49.3584103 183.047314,49.0153333 C182.243033,48.6722564 181.563509,48.2081538 181.010278,47.6245641 C180.456535,47.0409744 180.034709,46.3625128 179.743266,45.5896923 C179.452334,44.8173846 179.306612,44.0014872 179.306612,43.1430256 C179.306612,42.2389231 179.463582,41.3973846 179.777523,40.6184103 C180.091464,39.8404615 180.52505,39.1650769 181.078793,38.5927692 C181.632535,38.0204615 182.297231,37.5712308 183.07288,37.2445641 C183.849551,36.9189231 184.69985,36.7553333 185.623777,36.7553333 C186.742511,36.7553333 187.655189,36.8958462 188.363346,37.176359 C189.070991,37.456359 189.664615,37.8430256 190.143707,38.3348205 L188.979467,39.5886667 C188.476855,39.107641 187.946121,38.7732821 187.387777,38.5845641 C186.827899,38.3948205 186.239899,38.3009744 185.623777,38.3009744 C184.927892,38.3009744 184.30001,38.4296923 183.741154,38.6871282 C183.181276,38.9450769 182.702184,39.2912308 182.302855,39.7261026 C181.903015,40.1614872 181.59521,40.6732821 181.378417,41.2625128 C181.161624,41.8527692 181.053227,42.4789231 181.053227,43.1430256 C181.053227,43.8296923 181.172873,44.4681538 181.412674,45.0578974 C181.652476,45.6471282 181.982779,46.1594359 182.405116,46.5943077 C182.827965,47.0291795 183.32393,47.3696923 183.895057,47.6158462 C184.465673,47.862 185.08793,47.9850769 185.760807,47.9850769 C186.343182,47.9850769 186.893857,47.9307179 187.412831,47.822 C187.932316,47.7132821 188.374594,47.5558462 188.739666,47.3496923 L188.739666,43.9671282 L186.051739,43.9671282 L186.051739,42.422 L190.383509,42.422 Z" id="Fill-125" fill="#FEFEFE" mask="url(#mask-4)"></path>
                    <path d="M200.124777,44.7742564 L197.864812,39.1937436 L197.831066,39.1937436 L195.536332,44.7742564 L200.124777,44.7742564 Z M197.180176,37.0645128 L198.669605,37.0645128 L203.856788,49.2214359 L201.939397,49.2214359 L200.724026,46.2168205 L194.954468,46.2168205 L193.75597,49.2214359 L191.838579,49.2214359 L197.180176,37.0645128 Z" id="Fill-126" fill="#FEFEFE" mask="url(#mask-4)"></path>
                    <polygon id="Fill-127" fill="#FEFEFE" mask="url(#mask-4)" points="205.431554 37.0644103 207.588747 37.0644103 214.265359 47.0577436 214.299617 47.0577436 214.299617 37.0644103 215.94346 37.0644103 215.94346 49.2213333 213.854782 49.2213333 207.109144 39.228 207.075398 39.228 207.075398 49.2213333 205.431554 49.2213333"></polygon>
                    <path d="M89.9631308,15.8384615 C89.582209,15.374359 89.1148769,15.0169231 88.560623,14.7682051 C88.0058577,14.5194872 87.3651934,14.3948718 86.637096,14.3948718 C85.9084873,14.3948718 85.2345882,14.5358974 84.614376,14.8179487 C83.9936525,15.1005128 83.4557603,15.494359 83.0012108,16 C82.5456386,16.5071795 82.1902821,17.1082051 81.9336073,17.8051282 C81.6769325,18.5020513 81.5491064,19.2574359 81.5491064,20.0707692 C81.5491064,20.9005128 81.6769325,21.66 81.9336073,22.3482051 C82.1902821,23.0369231 82.5415482,23.634359 82.9884282,24.1405128 C83.4347969,24.6471795 83.9604177,25.0410256 84.5642682,25.3230769 C85.1681186,25.605641 85.8179864,25.7461538 86.512849,25.7461538 C87.307416,25.7461538 88.0104595,25.5805128 88.6224908,25.2487179 C89.2345221,24.9164103 89.7396908,24.4517949 90.136463,23.854359 L93.3627934,26.2692308 C92.6183343,27.314359 91.675489,28.0861538 90.5337464,28.5841026 C89.3920038,29.0820513 88.2170264,29.3312821 87.0093256,29.3312821 C85.6354508,29.3312821 84.3699725,29.1153846 83.2118682,28.6835897 C82.0532525,28.2523077 81.0526299,27.634359 80.2084664,26.8292308 C79.364303,26.0241026 78.7067656,25.0492308 78.235343,23.9041026 C77.7639203,22.7589744 77.528209,21.4815385 77.528209,20.0707692 C77.528209,18.66 77.7639203,17.3820513 78.235343,16.2369231 C78.7067656,15.0917949 79.364303,14.1174359 80.2084664,13.3117949 C81.0526299,12.5071795 82.0532525,11.8892308 83.2118682,11.4574359 C84.3699725,11.025641 85.6354508,10.8097436 87.0093256,10.8097436 C87.5052908,10.8097436 88.0227308,10.8558974 88.560623,10.9471795 C89.0985151,11.0384615 89.6277151,11.1835897 90.1487343,11.3830769 C90.6702647,11.5815385 91.1703203,11.8476923 91.6509464,12.1789744 C92.1300386,12.5117949 92.5605569,12.9179487 92.9409673,13.3989744 L89.9631308,15.8384615 Z" id="Fill-128" fill="#FEFEFE" mask="url(#mask-4)"></path>
                    <path d="M98.5509475,20.0707179 C98.5509475,20.9004615 98.6787736,21.6599487 98.9354483,22.3481538 C99.1921231,23.0368718 99.5602623,23.6343077 100.039866,24.1409744 C100.519981,24.6471282 101.095198,25.0409744 101.765007,25.3230256 C102.435327,25.6055897 103.183876,25.7461026 104.011167,25.7461026 C104.838457,25.7461026 105.587518,25.6055897 106.257327,25.3230256 C106.927647,25.0409744 107.502353,24.6471282 107.982467,24.1409744 C108.462071,23.6343077 108.83021,23.0368718 109.086885,22.3481538 C109.343048,21.6599487 109.471386,20.9004615 109.471386,20.0707179 C109.471386,19.2573846 109.343048,18.502 109.086885,17.8050769 C108.83021,17.1081538 108.462071,16.5071282 107.982467,16.0004615 C107.502353,15.4943077 106.927647,15.1004615 106.257327,14.8178974 C105.587518,14.5358462 104.838457,14.3948205 104.011167,14.3948205 C103.183876,14.3948205 102.435327,14.5358462 101.765007,14.8178974 C101.095198,15.1004615 100.519981,15.4943077 100.039866,16.0004615 C99.5602623,16.5071282 99.1921231,17.1081538 98.9354483,17.8050769 C98.6787736,18.502 98.5509475,19.2573846 98.5509475,20.0707179 M94.5300501,20.0707179 C94.5300501,18.6599487 94.7657614,17.382 95.2376953,16.2368718 C95.7086066,15.0917436 96.3666553,14.1173846 97.2103075,13.3117436 C98.054471,12.5071282 99.0550936,11.8891795 100.213709,11.4573846 C101.371814,11.0255897 102.637292,10.8096923 104.011167,10.8096923 C105.38453,10.8096923 106.65052,11.0255897 107.808624,11.4573846 C108.966728,11.8891795 109.967862,12.5071282 110.811514,13.3117436 C111.655678,14.1173846 112.313215,15.0917436 112.785149,16.2368718 C113.256572,17.382 113.492794,18.6599487 113.492794,20.0707179 C113.492794,21.4814872 113.256572,22.7589231 112.785149,23.9040513 C112.313215,25.0491795 111.655678,26.0240513 110.811514,26.8291795 C109.967862,27.6343077 108.966728,28.2522564 107.808624,28.6835385 C106.65052,29.1153333 105.38453,29.3312308 104.011167,29.3312308 C102.637292,29.3312308 101.371814,29.1153333 100.213709,28.6835385 C99.0550936,28.2522564 98.054471,27.6343077 97.2103075,26.8291795 C96.3666553,26.0240513 95.7086066,25.0491795 95.2376953,23.9040513 C94.7657614,22.7589231 94.5300501,21.4814872 94.5300501,20.0707179" id="Fill-129" fill="#FEFEFE" mask="url(#mask-4)"></path>
                    <path d="M119.994796,25.2981026 L122.005756,25.2981026 C122.899005,25.2981026 123.730386,25.2068205 124.499899,25.0242564 C125.268901,24.8416923 125.93513,24.5391282 126.498076,24.1155385 C127.06,23.6924615 127.503301,23.1365641 127.825422,22.4478462 C128.148055,21.759641 128.309627,20.9170769 128.309627,19.9211795 C128.309627,19.0586154 128.148055,18.3073333 127.825422,17.668359 C127.503301,17.0293846 127.068692,16.5027179 126.522619,16.0873333 C125.976546,15.6724615 125.334859,15.3616923 124.599092,15.154 C123.862302,14.9463077 123.08921,14.8427179 122.278281,14.8427179 L119.994796,14.8427179 L119.994796,25.2981026 Z M116.1232,11.2581026 L121.930594,11.2581026 C123.337193,11.2581026 124.673231,11.4160513 125.939221,11.7314359 C127.20521,12.0463077 128.309627,12.5565641 129.252473,13.2622051 C130.195829,13.9673333 130.944379,14.8842564 131.499144,16.0129744 C132.053398,17.1416923 132.330525,18.5109231 132.330525,20.1201538 C132.330525,21.5478462 132.061579,22.8052821 131.523687,23.8919487 C130.985794,24.9786154 130.261787,25.8914359 129.352177,26.6298974 C128.442055,27.368359 127.391325,27.9288718 126.199986,28.3104103 C125.008647,28.6919487 123.759019,28.8827179 122.452125,28.8827179 L116.1232,28.8827179 L116.1232,11.2581026 Z" id="Fill-130" fill="#FEFEFE" mask="url(#mask-4)"></path>
                    <polygon id="Fill-131" fill="#FEFEFE" mask="url(#mask-4)" points="135.10972 11.2581026 147.048165 11.2581026 147.048165 14.8427179 138.981827 14.8427179 138.981827 18.128359 146.601796 18.128359 146.601796 21.7134872 138.981827 21.7134872 138.981827 25.2981026 147.495045 25.2981026 147.495045 28.8827179 135.10972 28.8827179"></polygon>
                    <polygon id="Fill-132" fill="#FEFEFE" mask="url(#mask-4)" points="158.092441 11.2581026 169.882097 11.2581026 169.882097 14.8427179 161.964549 14.8427179 161.964549 18.4273333 169.286427 18.4273333 169.286427 22.0124615 161.964549 22.0124615 161.964549 28.8827179 158.092441 28.8827179"></polygon>
                    <path d="M175.739446,20.0707179 C175.739446,20.9004615 175.867272,21.6599487 176.123947,22.3481538 C176.380622,23.0368718 176.748761,23.6343077 177.228364,24.1409744 C177.708479,24.6471282 178.283696,25.0409744 178.953505,25.3230256 C179.623825,25.6055897 180.372375,25.7461026 181.199665,25.7461026 C182.026955,25.7461026 182.776016,25.6055897 183.445825,25.3230256 C184.116145,25.0409744 184.690851,24.6471282 185.170966,24.1409744 C185.650569,23.6343077 186.018709,23.0368718 186.275383,22.3481538 C186.531547,21.6599487 186.659884,20.9004615 186.659884,20.0707179 C186.659884,19.2573846 186.531547,18.502 186.275383,17.8050769 C186.018709,17.1081538 185.650569,16.5071282 185.170966,16.0004615 C184.690851,15.4943077 184.116145,15.1004615 183.445825,14.8178974 C182.776016,14.5358462 182.026955,14.3948205 181.199665,14.3948205 C180.372375,14.3948205 179.623825,14.5358462 178.953505,14.8178974 C178.283696,15.1004615 177.708479,15.4943077 177.228364,16.0004615 C176.748761,16.5071282 176.380622,17.1081538 176.123947,17.8050769 C175.867272,18.502 175.739446,19.2573846 175.739446,20.0707179 M171.718549,20.0707179 C171.718549,18.6599487 171.95426,17.382 172.426194,16.2368718 C172.897105,15.0917436 173.555154,14.1173846 174.398806,13.3117436 C175.242969,12.5071282 176.243592,11.8891795 177.402208,11.4573846 C178.560312,11.0255897 179.82579,10.8096923 181.199665,10.8096923 C182.573029,10.8096923 183.839018,11.0255897 184.997122,11.4573846 C186.155227,11.8891795 187.156361,12.5071282 188.000013,13.3117436 C188.844176,14.1173846 189.501714,15.0917436 189.973648,16.2368718 C190.44507,17.382 190.681293,18.6599487 190.681293,20.0707179 C190.681293,21.4814872 190.44507,22.7589231 189.973648,23.9040513 C189.501714,25.0491795 188.844176,26.0240513 188.000013,26.8291795 C187.156361,27.6343077 186.155227,28.2522564 184.997122,28.6835385 C183.839018,29.1153333 182.573029,29.3312308 181.199665,29.3312308 C179.82579,29.3312308 178.560312,29.1153333 177.402208,28.6835385 C176.243592,28.2522564 175.242969,27.6343077 174.398806,26.8291795 C173.555154,26.0240513 172.897105,25.0491795 172.426194,23.9040513 C171.95426,22.7589231 171.718549,21.4814872 171.718549,20.0707179" id="Fill-133" fill="#FEFEFE" mask="url(#mask-4)"></path>
                    <path d="M197.183243,18.5517949 L199.466729,18.5517949 C199.814416,18.5517949 200.182043,18.54 200.571146,18.5148718 C200.960249,18.4897436 201.311515,18.4148718 201.625967,18.2902564 C201.940419,18.1661538 202.200673,17.9712821 202.408263,17.705641 C202.61483,17.4405128 202.718113,17.0666667 202.718113,16.5851282 C202.718113,16.1374359 202.627101,15.7810256 202.445077,15.5148718 C202.263052,15.2497436 202.031431,15.0461538 201.750214,14.9051282 C201.468997,14.7641026 201.145852,14.6687179 200.782315,14.6189744 C200.418266,14.5687179 200.062398,14.5441026 199.714711,14.5441026 L197.183243,14.5441026 L197.183243,18.5517949 Z M193.311647,11.2579487 L200.112506,11.2579487 C201.005755,11.2579487 201.853497,11.3451282 202.656245,11.5194872 C203.458482,11.6938462 204.161525,11.9841026 204.765887,12.3907692 C205.369737,12.7974359 205.849341,13.345641 206.20572,14.0333333 C206.561077,14.7225641 206.73901,15.5815385 206.73901,16.6102564 C206.73901,17.8553846 206.416377,18.9128205 205.771111,19.7841026 C205.125845,20.6558974 204.182489,21.2076923 202.941553,21.4394872 L207.40933,28.8830769 L202.76771,28.8830769 L199.094499,21.8379487 L197.183243,21.8379487 L197.183243,28.8830769 L193.311647,28.8830769 L193.311647,11.2579487 Z" id="Fill-134" fill="#FEFEFE" mask="url(#mask-4)"></path>
                    <path d="M232.650483,27.638359 C231.509252,28.2357949 230.317913,28.6675897 229.076977,28.9322051 C227.83553,29.1978462 226.569541,29.3311795 225.279008,29.3311795 C223.905134,29.3311795 222.639655,29.1152821 221.481551,28.6834872 C220.323447,28.2522051 219.322824,27.6342564 218.478149,26.8291282 C217.634497,26.0245128 216.97696,25.0491282 216.505537,23.904 C216.033603,22.7588718 215.797892,21.4814359 215.797892,20.0706667 C215.797892,18.6598974 216.033603,17.3819487 216.505537,16.2373333 C216.97696,15.0916923 217.634497,14.1173333 218.478149,13.3116923 C219.322824,12.5070769 220.323447,11.8891282 221.481551,11.4573333 C222.639655,11.0255385 223.905134,10.8101538 225.279008,10.8101538 C226.685607,10.8101538 227.980229,10.9809231 229.163899,11.3204103 C230.346034,11.6609231 231.384494,12.2455385 232.278254,13.0757949 L229.5484,16.0629744 C229.018177,15.5147692 228.422507,15.1004103 227.76088,14.8178462 C227.099252,14.5357949 226.271961,14.3947692 225.279008,14.3947692 C224.451718,14.3947692 223.703168,14.5357949 223.032848,14.8178462 C222.36304,15.1004103 221.787822,15.4942564 221.307707,16.0004103 C220.828104,16.5070769 220.459965,17.1081026 220.20329,17.8050256 C219.946615,18.5024615 219.818789,19.2573333 219.818789,20.0706667 C219.818789,20.9004103 219.946615,21.6598974 220.20329,22.3486154 C220.459965,23.0368205 220.828104,23.6342564 221.307707,24.1409231 C221.787822,24.6470769 222.36304,25.0414359 223.032848,25.3229744 C223.703168,25.6055385 224.451718,25.7465641 225.279008,25.7465641 C226.122661,25.7465641 226.850758,25.6511795 227.463301,25.4598974 C228.075332,25.269641 228.563627,25.0742564 228.927676,24.8747692 L228.927676,22.0122051 L225.775485,22.0122051 L225.775485,18.4275897 L232.650483,18.4275897 L232.650483,27.638359 Z" id="Fill-135" fill="#FEFEFE" mask="url(#mask-4)"></path>
                    <path d="M239.128709,20.0707179 C239.128709,20.9004615 239.256535,21.6599487 239.51321,22.3481538 C239.769885,23.0368718 240.138024,23.6343077 240.617627,24.1409744 C241.097742,24.6471282 241.67296,25.0409744 242.342768,25.3230256 C243.013088,25.6055897 243.761638,25.7461026 244.588928,25.7461026 C245.416219,25.7461026 246.16528,25.6055897 246.835088,25.3230256 C247.505408,25.0409744 248.080114,24.6471282 248.560229,24.1409744 C249.039833,23.6343077 249.407972,23.0368718 249.664647,22.3481538 C249.92081,21.6599487 250.049147,20.9004615 250.049147,20.0707179 C250.049147,19.2573846 249.92081,18.502 249.664647,17.8050769 C249.407972,17.1081538 249.039833,16.5071282 248.560229,16.0004615 C248.080114,15.4943077 247.505408,15.1004615 246.835088,14.8178974 C246.16528,14.5358462 245.416219,14.3948205 244.588928,14.3948205 C243.761638,14.3948205 243.013088,14.5358462 242.342768,14.8178974 C241.67296,15.1004615 241.097742,15.4943077 240.617627,16.0004615 C240.138024,16.5071282 239.769885,17.1081538 239.51321,17.8050769 C239.256535,18.502 239.128709,19.2573846 239.128709,20.0707179 M235.107812,20.0707179 C235.107812,18.6599487 235.343523,17.382 235.815457,16.2368718 C236.286368,15.0917436 236.944417,14.1173846 237.788069,13.3117436 C238.632233,12.5071282 239.632855,11.8891795 240.791471,11.4573846 C241.949575,11.0255897 243.215054,10.8096923 244.588928,10.8096923 C245.962292,10.8096923 247.228281,11.0255897 248.386386,11.4573846 C249.54449,11.8891795 250.545624,12.5071282 251.389276,13.3117436 C252.23344,14.1173846 252.890977,15.0917436 253.362911,16.2368718 C253.834334,17.382 254.070556,18.6599487 254.070556,20.0707179 C254.070556,21.4814872 253.834334,22.7589231 253.362911,23.9040513 C252.890977,25.0491795 252.23344,26.0240513 251.389276,26.8291795 C250.545624,27.6343077 249.54449,28.2522564 248.386386,28.6835385 C247.228281,29.1153333 245.962292,29.3312308 244.588928,29.3312308 C243.215054,29.3312308 241.949575,29.1153333 240.791471,28.6835385 C239.632855,28.2522564 238.632233,27.6343077 237.788069,26.8291795 C236.944417,26.0240513 236.286368,25.0491795 235.815457,23.9040513 C235.343523,22.7589231 235.107812,21.4814872 235.107812,20.0707179" id="Fill-136" fill="#FEFEFE" mask="url(#mask-4)"></path>
                    <path d="M259.778605,20.0707179 C259.778605,20.9004615 259.906431,21.6599487 260.163105,22.3481538 C260.41978,23.0368718 260.787919,23.6343077 261.267523,24.1409744 C261.747638,24.6471282 262.322855,25.0409744 262.992664,25.3230256 C263.662984,25.6055897 264.411533,25.7461026 265.238824,25.7461026 C266.066114,25.7461026 266.815175,25.6055897 267.484984,25.3230256 C268.155304,25.0409744 268.73001,24.6471282 269.210125,24.1409744 C269.689728,23.6343077 270.057867,23.0368718 270.314542,22.3481538 C270.570705,21.6599487 270.699043,20.9004615 270.699043,20.0707179 C270.699043,19.2573846 270.570705,18.502 270.314542,17.8050769 C270.057867,17.1081538 269.689728,16.5071282 269.210125,16.0004615 C268.73001,15.4943077 268.155304,15.1004615 267.484984,14.8178974 C266.815175,14.5358462 266.066114,14.3948205 265.238824,14.3948205 C264.411533,14.3948205 263.662984,14.5358462 262.992664,14.8178974 C262.322855,15.1004615 261.747638,15.4943077 261.267523,16.0004615 C260.787919,16.5071282 260.41978,17.1081538 260.163105,17.8050769 C259.906431,18.502 259.778605,19.2573846 259.778605,20.0707179 M255.757707,20.0707179 C255.757707,18.6599487 255.993418,17.382 256.465352,16.2368718 C256.936264,15.0917436 257.594312,14.1173846 258.437965,13.3117436 C259.282128,12.5071282 260.282751,11.8891795 261.441366,11.4573846 C262.599471,11.0255897 263.864949,10.8096923 265.238824,10.8096923 C266.612187,10.8096923 267.878177,11.0255897 269.036281,11.4573846 C270.194385,11.8891795 271.195519,12.5071282 272.039171,13.3117436 C272.883335,14.1173846 273.540872,15.0917436 274.012806,16.2368718 C274.484229,17.382 274.720451,18.6599487 274.720451,20.0707179 C274.720451,21.4814872 274.484229,22.7589231 274.012806,23.9040513 C273.540872,25.0491795 272.883335,26.0240513 272.039171,26.8291795 C271.195519,27.6343077 270.194385,28.2522564 269.036281,28.6835385 C267.878177,29.1153333 266.612187,29.3312308 265.238824,29.3312308 C263.864949,29.3312308 262.599471,29.1153333 261.441366,28.6835385 C260.282751,28.2522564 259.282128,27.6343077 258.437965,26.8291795 C257.594312,26.0240513 256.936264,25.0491795 256.465352,23.9040513 C255.993418,22.7589231 255.757707,21.4814872 255.757707,20.0707179" id="Fill-137" fill="#FEFEFE" mask="url(#mask-4)"></path>
                    <path d="M281.222402,25.2981026 L283.233362,25.2981026 C284.126611,25.2981026 284.957992,25.2068205 285.727505,25.0242564 C286.496506,24.8416923 287.162736,24.5391282 287.725682,24.1155385 C288.287606,23.6924615 288.730906,23.1365641 289.053028,22.4478462 C289.375661,21.759641 289.537233,20.9170769 289.537233,19.9211795 C289.537233,19.0586154 289.375661,18.3073333 289.053028,17.668359 C288.730906,17.0293846 288.296298,16.5027179 287.750225,16.0873333 C287.204152,15.6724615 286.562465,15.3616923 285.826698,15.154 C285.089908,14.9463077 284.316816,14.8427179 283.505887,14.8427179 L281.222402,14.8427179 L281.222402,25.2981026 Z M277.350806,11.2581026 L283.1582,11.2581026 C284.564799,11.2581026 285.900837,11.4160513 287.166826,11.7314359 C288.432816,12.0463077 289.537233,12.5565641 290.480079,13.2622051 C291.423435,13.9673333 292.171985,14.8842564 292.72675,16.0129744 C293.281004,17.1416923 293.558131,18.5109231 293.558131,20.1201538 C293.558131,21.5478462 293.289185,22.8052821 292.751293,23.8919487 C292.2134,24.9786154 291.489393,25.8914359 290.579783,26.6298974 C289.669661,27.368359 288.618931,27.9288718 287.427592,28.3104103 C286.236253,28.6919487 284.986625,28.8827179 283.679731,28.8827179 L277.350806,28.8827179 L277.350806,11.2581026 Z" id="Fill-138" fill="#FEFEFE" mask="url(#mask-4)"></path>
                </g>
            </g>
        </g>
    </g>
</svg>