<?xml version="1.0" encoding="UTF-8"?>
<svg width="75px" height="97px" viewBox="0 0 75 97" version="1.1" xmlns="http://www.w3.org/2000/svg" xmlns:xlink="http://www.w3.org/1999/xlink">
    <!-- Generator: Sketch 50 (54983) - http://www.bohemiancoding.com/sketch -->
    <title>Group 3</title>
    <desc>Created with Sketch.</desc>
    <defs>
        <polygon id="path-1" points="1.03295455 1.81601538 70.2477273 1.81601538 70.2477273 92.5826354 1.03295455 92.5826354"></polygon>
    </defs>
    <g id="Page-1" stroke="none" stroke-width="1" fill="none" fill-rule="evenodd">
        <g id="Code-of-Conduct" transform="translate(-683.000000, -196.000000)">
            <g id="Group-3" transform="translate(683.000000, 195.000000)">
                <polygon id="Fill-1" fill="#FFFFFF" points="0 6.78461538 0 97.5514615 69.2159091 97.5514615 69.2159091 95.3781231 2.625 95.3781231 2.625 6.78461538"></polygon>
                <g id="Group-4" transform="translate(4.545455, 0.000000)">
                    <mask id="mask-2" fill="white">
                        <use xlink:href="#path-1"></use>
                    </mask>
                    <g id="Clip-3"></g>
                    <path d="M48.7306818,44.3756815 C49.1352273,44.3756815 49.4625,44.7013431 49.4625,45.1038969 C49.4625,45.5064508 49.1352273,45.8321123 48.7306818,45.8321123 C48.3261364,45.8321123 47.9988636,45.5064508 47.9988636,45.1038969 C47.9988636,44.7013431 48.3261364,44.3756815 48.7306818,44.3756815 M44.5352273,40.1081585 C44.5352273,40.5129738 44.2102273,40.8386354 43.8056818,40.8386354 C43.3988636,40.8386354 43.0738636,40.5129738 43.0738636,40.1081585 C43.0738636,39.7078662 43.3988636,39.3822046 43.8056818,39.3822046 C44.2102273,39.3822046 44.5352273,39.7078662 44.5352273,40.1081585 M44.3761364,36.4218508 C44.3761364,36.8244046 44.0465909,37.1523277 43.6443182,37.1523277 C43.2397727,37.1523277 42.9102273,36.8244046 42.9102273,36.4218508 C42.9102273,36.0215585 43.2397727,35.6958969 43.6443182,35.6958969 C44.0465909,35.6958969 44.3761364,36.0215585 44.3761364,36.4218508 M28.3602273,53.16402 C27.9556818,53.16402 27.6284091,52.8383585 27.6284091,52.4358046 C27.6284091,52.0355123 27.9556818,51.7075892 28.3602273,51.7075892 C28.7647727,51.7075892 29.0920455,52.0355123 29.0920455,52.4358046 C29.0920455,52.8383585 28.7647727,53.16402 28.3602273,53.16402 M31.4193182,55.2740354 C31.0147727,55.2740354 30.6875,54.9483738 30.6875,54.54582 C30.6875,54.1432662 31.0147727,53.8176046 31.4193182,53.8176046 C31.8238636,53.8176046 32.1511364,54.1432662 32.1511364,54.54582 C32.1511364,54.9483738 31.8238636,55.2740354 31.4193182,55.2740354 M32.2034091,61.4774354 C32.2034091,61.0748815 32.5284091,60.74922 32.9329545,60.74922 C33.3375,60.74922 33.6647727,61.0748815 33.6647727,61.4774354 C33.6647727,61.8799892 33.3375,62.2056508 32.9329545,62.2056508 C32.5284091,62.2056508 32.2034091,61.8799892 32.2034091,61.4774354 M42.8011364,61.0409585 C37.7943182,64.8290354 36.4715909,65.7494815 34.8943182,67.3167277 C33.3465909,65.7947123 31.9693182,64.9488969 27.3284091,61.3326969 L30.0352273,59.8604354 L32.0034091,61.0590508 C31.9329545,61.2015277 31.8238636,61.3213892 31.8238636,61.4887431 C31.8238636,62.0925738 32.3193182,62.5810662 32.9329545,62.5810662 C33.5443182,62.5810662 34.0443182,62.0925738 34.0443182,61.4887431 C34.0443182,60.8849123 33.5443182,60.39642 32.9329545,60.39642 C32.6852273,60.39642 32.4875,60.5208046 32.3011364,60.6542354 L30.0511364,59.27922 L30.0488636,59.2837431 L30.0465909,59.2814815 L26.8965909,60.9957277 C26.5465909,60.7243431 26.1829545,60.4326046 25.8238636,60.1476508 L31.6625,56.8118815 L31.6602273,56.8118815 L31.6647727,56.8118815 L31.6647727,55.5499431 C32.1420455,55.42782 32.5284091,55.0682354 32.5284091,54.5571277 C32.5284091,53.9555585 32.0306818,53.4670662 31.4193182,53.4670662 C30.8056818,53.4670662 30.3102273,53.9555585 30.3102273,54.5571277 C30.3102273,55.0637123 30.6897727,55.4187738 31.1625,55.54542 L31.1625,56.5201431 L25.3965909,59.8129431 C24.8579545,59.3809892 24.3147727,58.9309431 23.7693182,58.4695892 L28.6056818,55.7082508 L28.6034091,55.7059892 L28.6079545,55.7059892 L28.6079545,53.4399277 C29.0852273,53.3200662 29.4693182,52.95822 29.4693182,52.4493738 C29.4693182,51.8455431 28.9738636,51.3570508 28.3602273,51.3570508 C27.7488636,51.3570508 27.2511364,51.8455431 27.2511364,52.4493738 C27.2511364,52.95822 27.6352273,53.3200662 28.1147727,53.4399277 L28.1034091,53.4399277 L28.1034091,55.4142508 L23.3556818,58.1280969 C19.5261364,54.8285123 15.8943182,50.72382 15.8875,45.4725277 C15.8784091,35.2254969 28.5284091,29.7050815 34.8625,39.1017738 C38.7397727,33.3325892 44.9920455,33.1833277 49.2579545,36.2658046 L46.2943182,37.8059123 L44.6215909,36.7452508 C44.6602273,36.6366969 44.7534091,36.5552815 44.7534091,36.43542 C44.7534091,35.8315892 44.2556818,35.3430969 43.6443182,35.3430969 C43.0306818,35.3430969 42.5329545,35.8315892 42.5329545,36.43542 C42.5329545,37.0392508 43.0306818,37.5277431 43.6443182,37.5277431 C43.9465909,37.5277431 44.2193182,37.40562 44.4193182,37.2133892 L46.2693182,38.3871277 L46.2715909,38.3826046 L46.2715909,38.3848662 L49.7034091,36.6005123 C50.2375,37.0302046 50.7261364,37.52322 51.1784091,38.0569431 L45.5829545,40.9652815 L44.7761364,40.4519123 C44.8170455,40.3365738 44.9147727,40.2506354 44.9147727,40.1217277 C44.9147727,39.5178969 44.4193182,39.0294046 43.8056818,39.0294046 C43.1897727,39.0294046 42.6943182,39.5178969 42.6943182,40.1217277 C42.6943182,40.7255585 43.1897727,41.2140508 43.8056818,41.2140508 C44.0988636,41.2140508 44.3579545,41.0896662 44.5556818,40.9087431 L45.5579545,41.5464969 L45.5602273,41.5419738 L45.5602273,41.5442354 L51.5102273,38.4504508 C51.7647727,38.7828969 51.9965909,39.1334354 52.2147727,39.4975431 L48.5215909,41.5193585 L48.5238636,41.5193585 L48.5193182,41.5193585 L48.4738636,44.1291738 C48.0011364,44.25582 47.6215909,44.6131431 47.6215909,45.1174662 C47.6215909,45.7190354 48.1170455,46.2097892 48.7306818,46.2097892 C49.3443182,46.2097892 49.8397727,45.7190354 49.8397727,45.1174662 C49.8397727,44.60862 49.4556818,44.2467738 48.9761364,44.1246508 L49.0193182,41.8201431 L52.4761364,39.9272354 C53.3329545,41.5012662 53.8534091,43.3285892 53.8556818,45.3549277 C53.8625,52.2842815 47.6193182,57.3840508 42.8011364,61.0409585 M70.2420455,1.81578923 L1.0375,1.81578923 C1.03522727,1.81578923 1.03295455,1.82257385 1.03295455,1.82257385 L1.03295455,4.31026615 L1.03295455,6.48134308 L1.03295455,92.5758508 C1.03295455,92.5803738 1.03522727,92.5826354 1.0375,92.5826354 L64.6715909,92.5826354 L67.2943182,92.5826354 L70.2420455,92.5826354 C70.2465909,92.5826354 70.2488636,92.5803738 70.2488636,92.5758508 L70.2488636,1.81805077 C70.2488636,1.81805077 70.2465909,1.81578923 70.2420455,1.81578923" id="Fill-2" fill="#FFFFFF" mask="url(#mask-2)"></path>
                </g>
            </g>
        </g>
    </g>
</svg>