<?xml version="1.0" encoding="UTF-8"?>
<svg width="27px" height="27px" viewBox="0 0 27 27" version="1.1" xmlns="http://www.w3.org/2000/svg" xmlns:xlink="http://www.w3.org/1999/xlink">
    <!-- Generator: Sketch 50 (54983) - http://www.bohemiancoding.com/sketch -->
    <title>Group 5</title>
    <desc>Created with Sketch.</desc>
    <defs>
        <polygon id="path-1" points="0 0 27 0 27 27 0 27"></polygon>
    </defs>
    <g id="Page-1" stroke="none" stroke-width="1" fill="none" fill-rule="evenodd">
        <g id="Weekend-For-Good" transform="translate(-642.000000, -2421.000000)">
            <g id="Footer" transform="translate(0.000000, 2379.000000)">
                <g id="Group-5" transform="translate(642.000000, 42.000000)">
                    <mask id="mask-2" fill="white">
                        <use xlink:href="#path-1"></use>
                    </mask>
                    <g id="Clip-4"></g>
                    <path d="M18.6471077,26.9998228 L18.6471077,16.5465293 L22.1414094,16.5465293 C22.3172409,15.1845471 22.4898827,13.8436963 22.6661129,12.4773283 L18.6510948,12.4773283 C18.6451141,12.3955934 18.6363425,12.3345913 18.6363425,12.2739878 C18.6355451,11.4375011 18.6339502,10.6006156 18.6379373,9.76412886 C18.6387348,9.59627332 18.6506961,9.42642425 18.6762136,9.26056224 C18.7998139,8.45716815 19.2344087,8.02497004 20.0497724,7.93286878 C20.4393129,7.88901103 20.8352327,7.8929981 21.2283616,7.88741621 C21.7470844,7.88063819 22.2658072,7.88582138 22.7984849,7.88582138 L22.7984849,4.23566112 C22.4699472,4.20815035 22.1370236,4.16150166 21.8033027,4.15512236 C20.8272585,4.13678185 19.8456325,4.06541334 18.8763664,4.13917409 C16.5179918,4.31899083 14.8294514,5.96166262 14.5136725,8.306457 C14.4586504,8.71592883 14.434329,9.13217867 14.4283483,9.54563757 C14.4155896,10.438342 14.4243612,11.3314451 14.4243612,12.2241495 L14.4243612,12.4733412 L10.9212878,12.4733412 L10.9212878,16.5369604 L14.4088115,16.5369604 L14.4088115,26.9998228 L14.1911154,26.9998228 C9.97953284,26.9998228 5.768349,26.9998228 1.55716517,26.9994241 C0.640528956,26.9994241 0.000598066252,26.364683 0.000598066252,25.4516445 C-0.000199355417,17.4858824 -0.000199355417,9.52012033 0.000598066252,1.55435825 C0.000598066252,0.642914628 0.643319932,0.000598060119 1.55517161,0.000598060119 C9.52101538,-0.000199353373 17.4868592,-0.000199353373 25.4527029,0.000598060119 C26.3657507,0.000598060119 26.999701,0.640921095 26.999701,1.55794661 C27.0000997,9.51653197 27.0000997,17.475516 26.999701,25.4341014 C26.999701,26.3698661 26.3741237,26.9994241 25.4439313,26.9998228 C23.2502243,27.0002215 21.056916,26.9998228 18.863209,26.9998228 L18.6471077,26.9998228 Z" id="Fill-3" fill="#FFFFFF" mask="url(#mask-2)"></path>
                </g>
            </g>
        </g>
    </g>
</svg>