<?xml version="1.0" encoding="UTF-8"?>
<svg width="126px" height="138px" viewBox="0 0 126 138" version="1.1" xmlns="http://www.w3.org/2000/svg" xmlns:xlink="http://www.w3.org/1999/xlink">
    <!-- Generator: Sketch 50 (54983) - http://www.bohemiancoding.com/sketch -->
    <title>Group</title>
    <desc>Created with Sketch.</desc>
    <defs>
        <polygon id="path-1" points="0 0.562197948 125.776358 0.562197948 125.776358 137.792192 0 137.792192"></polygon>
    </defs>
    <g id="Page-1" stroke="none" stroke-width="1" fill="none" fill-rule="evenodd">
        <g id="Weekend-For-Good" transform="translate(-366.000000, -1712.000000)">
            <g id="Group-4" transform="translate(273.000000, 1712.000000)">
                <g id="Group" transform="translate(93.139200, 0.000000)">
                    <g id="Group-6">
                        <mask id="mask-2" fill="white">
                            <use xlink:href="#path-1"></use>
                        </mask>
                        <g id="Clip-2"></g>
                        <path d="M22.8797184,112.23657 C23.8672896,112.558861 24.851904,112.884109 25.8365184,113.218227 C28.7460096,114.208755 31.7087232,115.042573 34.7069184,115.71081 C38.4265728,116.544627 42.3679872,116.423398 46.1172096,115.849779 C45.1266816,114.894733 43.790208,114.229453 42.65184,113.469555 C41.0462976,112.399194 39.428928,111.34953 37.7938176,110.326477 C34.0091136,107.952166 30.1386624,105.690214 26.1174144,103.73577 C23.1133056,102.27511 19.973184,100.897242 16.6881792,100.214221 C12.5575296,99.353792 11.3659392,100.50103 10.9815552,100.882458 C8.6279424,103.209459 10.9815552,108.720934 10.9815552,108.720934 C14.9850624,109.782426 18.9471744,110.959232 22.8797184,112.23657" id="Fill-1" fill="#7BCDD2" mask="url(#mask-2)"></path>
                        <path d="M125.776358,133.590579 L114.611482,106.893632 C109.404557,108.215322 104.197632,109.537011 98.9877504,110.861658 C100.501632,112.751053 102.325978,116.659942 100.912627,118.688307 C100.912627,118.688307 97.825728,100.879501 81.0547584,100.521728 C76.1760384,100.41824 71.2973184,100.036813 66.4895616,99.1734272 C63.5505024,98.6471168 60.6764928,97.890176 57.7876992,97.150976 C54.9255168,96.4176896 51.7972224,95.790848 48.9853056,97.0859264 C47.2555776,97.8842624 46.1940864,99.6435584 46.288704,101.544781 C46.377408,103.377997 47.5246464,104.891878 49.0355712,105.846925 C53.3761536,108.590835 68.3050368,112.816102 68.3050368,112.816102 C68.3050368,112.816102 45.4814976,119.137741 33.8819712,116.683597 C22.2854016,114.235366 6.2625024,106.550643 1.5286656,110.84983 C-2.1407232,114.185101 0.4346496,119.542822 13.187328,124.051942 C17.8502016,125.704794 22.575168,127.180237 27.335616,128.513754 C34.6921344,130.5776 42.1432704,132.298458 49.6564992,133.688154 C59.1980928,135.45632 68.8431744,136.695219 78.5237376,137.36937 C83.9819904,137.750797 89.4520704,137.954816 94.9251072,137.966643 C97.79616,137.975514 100.664256,137.934118 103.529395,137.836544 C105.791347,137.762624 108.041472,137.662093 110.294554,137.455117 C112.447104,137.254054 114.596698,136.695219 116.675328,136.11273 C119.717875,135.264128 122.665805,134.176026 125.776358,133.590579" id="Fill-3" fill="#7BCDD2" mask="url(#mask-2)"></path>
                        <path d="M59.2128768,59.3305472 C60.0585216,59.3305472 60.7444992,58.6445696 60.7444992,57.7989248 C60.7444992,56.95328 60.0585216,56.2673024 59.2128768,56.2673024 C58.367232,56.2673024 57.6812544,56.95328 57.6812544,57.7989248 C57.6812544,58.6445696 58.367232,59.3305472 59.2128768,59.3305472" id="Fill-4" fill="#7BCDD2" mask="url(#mask-2)"></path>
                        <path d="M100.123162,12.4652672 L92.8849152,16.4510336 L92.799168,21.1878272 C93.8251776,21.4243712 94.6057728,22.2936704 94.6057728,23.3847296 C94.6057728,24.65024 93.5649792,25.6821632 92.281728,25.6821632 C90.9984768,25.6821632 89.9576832,24.65024 89.9576832,23.3847296 C89.9576832,22.3025408 90.7264512,21.4391552 91.7435904,21.190784 L91.838208,15.8182784 L91.8470784,15.8182784 L91.8470784,15.8153216 L99.5761536,11.5604864 C99.1148928,10.797632 98.6329344,10.058432 98.0977536,9.3606272 L85.6496256,15.868544 L85.6496256,15.8655872 L85.643712,15.8715008 L83.5562112,14.537984 C83.1393024,14.9282816 82.5863808,15.173696 81.9713664,15.173696 C80.6881152,15.173696 79.6443648,14.1476864 79.6443648,12.8762624 C79.6443648,11.6077952 80.6881152,10.575872 81.9713664,10.575872 C83.2546176,10.575872 84.2954112,11.6077952 84.2954112,12.8762624 C84.2954112,13.1542016 84.2274048,13.4084864 84.135744,13.6539008 L85.6939776,14.6503424 L97.4058624,8.5297664 C96.4567296,7.4091392 95.4366336,6.3742592 94.3130496,5.4694784 L87.1339392,9.2187008 L87.1309824,9.2187008 L87.1280256,9.2246144 L83.2605312,6.7556864 C82.8406656,7.1637248 82.2670464,7.4180096 81.6313344,7.4180096 C80.3480832,7.4180096 79.3072896,6.3890432 79.3072896,5.1235328 C79.3072896,3.8521088 80.3480832,2.8231424 81.6313344,2.8231424 C82.9145856,2.8231424 83.9553792,3.8521088 83.9553792,5.1235328 C83.9553792,5.3807744 83.8873728,5.6202752 83.8075392,5.8538624 L87.1782912,8.003456 L93.3846144,4.7628032 C84.4550784,-1.7214592 71.3653248,-1.4050816 63.2548224,10.7296256 C49.9965312,-9.0395392 23.5124736,2.577728 23.5331712,24.1328 C23.5449984,35.1794048 31.149888,43.8132608 39.162816,50.7528704 L49.1006208,45.0462464 L49.1006208,40.9983872 C48.0864384,40.7529728 47.3176704,39.8895872 47.3176704,38.8073984 C47.3176704,37.5389312 48.358464,36.5099648 49.6417152,36.5099648 C50.9249664,36.5099648 51.96576,37.5389312 51.96576,38.8073984 C51.96576,39.8955008 51.1851648,40.7648 50.1591552,41.0043008 L50.1591552,45.6612608 L50.1502848,45.6612608 L50.1502848,45.6642176 L40.0173312,51.4832 C41.1616128,52.4530304 42.3058944,53.3932928 43.435392,54.2980736 L55.5020928,47.3702912 L55.5020928,45.436544 C54.4879104,45.1911296 53.7191424,44.3247872 53.7191424,43.2455552 C53.7191424,41.977088 54.759936,40.9481216 56.046144,40.9481216 C57.3293952,40.9481216 58.3701888,41.977088 58.3701888,43.2455552 C58.3701888,44.3336576 57.5866368,45.2 56.5606272,45.4424576 L56.5606272,47.9853056 L56.5517568,47.9853056 L56.5517568,47.9882624 L44.3253888,55.0077056 C45.0882432,55.6138496 45.8392704,56.2081664 46.5755136,56.7847424 L53.1750912,53.18336 L53.1750912,53.1863168 L53.1810048,53.1804032 L57.8290944,56.0278016 C58.219392,55.7321216 58.6836096,55.5281024 59.2128768,55.5281024 C60.496128,55.5281024 61.5369216,56.554112 61.5369216,57.825536 C61.5369216,59.0940032 60.496128,60.1229696 59.2128768,60.1229696 C57.9296256,60.1229696 56.888832,59.0940032 56.888832,57.825536 C56.888832,57.4677632 56.9864064,57.1425152 57.1342464,56.8409216 L53.1514368,54.4015616 L47.4832512,57.4943744 C57.1963392,65.1022208 60.0792192,66.8792576 63.319872,70.0844288 C66.6226176,66.78464 69.3842688,64.8508928 79.8690816,56.87936 C89.9517696,49.19168 103.023782,38.4614528 103.006042,23.8844288 C103.003085,19.62368 101.914982,15.7768832 100.123162,12.4652672" id="Fill-5" fill="#7BCDD2" mask="url(#mask-2)"></path>
                    </g>
                    <path d="M57.5748096,43.218944 C57.5748096,42.3703424 56.8917888,41.6873216 56.046144,41.6873216 C55.1975424,41.6873216 54.5115648,42.3703424 54.5115648,43.218944 C54.5115648,44.0645888 55.1975424,44.7505664 56.046144,44.7505664 C56.8917888,44.7505664 57.5748096,44.0645888 57.5748096,43.218944" id="Fill-7" fill="#7BCDD2"></path>
                    <path d="M81.9713664,11.315072 C81.1227648,11.315072 80.439744,12.0040064 80.439744,12.8496512 C80.439744,13.695296 81.1227648,14.3842304 81.9713664,14.3842304 C82.8170112,14.3842304 83.5029888,13.695296 83.5029888,12.8496512 C83.5029888,12.0040064 82.8170112,11.315072 81.9713664,11.315072" id="Fill-8" fill="#7BCDD2"></path>
                    <path d="M90.7501056,23.3581184 C90.7501056,24.2037632 91.4360832,24.886784 92.281728,24.886784 C93.1273728,24.886784 93.8133504,24.2037632 93.8133504,23.3581184 C93.8133504,22.5124736 93.1273728,21.8235392 92.281728,21.8235392 C91.4360832,21.8235392 90.7501056,22.5124736 90.7501056,23.3581184" id="Fill-9" fill="#7BCDD2"></path>
                    <path d="M81.6313344,3.5623424 C80.7856896,3.5623424 80.099712,4.24832 80.099712,5.0939648 C80.099712,5.9396096 80.7856896,6.628544 81.6313344,6.628544 C82.4769792,6.628544 83.1629568,5.9396096 83.1629568,5.0939648 C83.1629568,4.24832 82.4769792,3.5623424 81.6313344,3.5623424" id="Fill-10" fill="#7BCDD2"></path>
                    <path d="M51.1733376,38.783744 C51.1733376,37.9351424 50.48736,37.2491648 49.6417152,37.2491648 C48.7960704,37.2491648 48.1100928,37.9351424 48.1100928,38.783744 C48.1100928,39.6293888 48.7960704,40.3124096 49.6417152,40.3124096 C50.48736,40.3124096 51.1733376,39.6293888 51.1733376,38.783744" id="Fill-11" fill="#7BCDD2"></path>
                </g>
            </g>
        </g>
    </g>
</svg>