<?xml version="1.0" encoding="UTF-8"?>
<svg width="115px" height="139px" viewBox="0 0 115 139" version="1.1" xmlns="http://www.w3.org/2000/svg" xmlns:xlink="http://www.w3.org/1999/xlink">
    <!-- Generator: Sketch 50 (54983) - http://www.bohemiancoding.com/sketch -->
    <title>Group</title>
    <desc>Created with Sketch.</desc>
    <defs></defs>
    <g id="Page-1" stroke="none" stroke-width="1" fill="none" fill-rule="evenodd">
        <g id="Weekend-For-Good" transform="translate(-942.000000, -1715.000000)" fill="#7BCDD2">
            <g id="Group-4" transform="translate(273.000000, 1712.000000)">
                <g id="Group-2" transform="translate(669.534400, 2.000000)">
                    <g id="Group">
                        <path d="M100.728131,55.0804158 L100.594702,57.9724902 L96.7104218,60.0366665 C97.1218294,61.2840824 97.0625274,62.6725752 96.3842609,63.9199911 C95.0091961,66.3628472 92.0440967,67.1870328 89.7313192,65.8616533 C88.9233297,65.3975849 88.3784926,64.6884884 87.9670851,63.9199911 C87.2072784,62.4869478 87.0997935,60.7346254 87.9744979,59.2087685 C89.3162053,56.8661511 92.2775983,56.0419656 94.5903758,57.367345 C94.9536005,57.5789602 95.2093403,57.8871016 95.4947311,58.1655427 L98.4338858,56.6248355 L98.6266173,52.470495 L91.1212095,43.1482885 L90.8951207,48.3607051 L82.3556346,52.8528874 C82.6595573,54.0446151 82.5224214,55.3588568 81.8589804,56.5171716 C80.5209794,58.8635016 77.55588,59.6839745 75.2431025,58.3548826 C72.9266186,57.0295032 72.1408673,54.0483276 73.4825748,51.7057102 C74.8242822,49.3593803 77.7893816,48.5389073 80.1021591,49.8679993 C80.576575,50.1390152 80.9397996,50.5176951 81.2807861,50.9075125 L88.7305982,46.9982002 L89.0085763,40.5272301 L84.3793149,34.7764942 L84.3793149,17.0676433 L75.4506595,17.0676433 L75.4506595,23.6871152 L57.1448773,0.955187705 L0,71.9279557 L6.03397719,71.9279557 C5.97096883,72.3660363 5.90054772,72.8078295 5.90054772,73.2644728 L5.90054772,129.736031 C5.90054772,131.492066 6.41573373,133.121874 7.25708067,134.525217 L27.9460614,107.772601 L24.1099641,98.4652443 C21.9157906,98.869912 19.6660215,97.8378238 18.750547,95.7216718 C17.6794049,93.2528278 18.8320873,90.3718911 21.3264771,89.2878272 C23.8208669,88.2037634 26.7081324,89.3249527 27.7792746,91.7975093 C28.6910426,93.8950985 27.9238232,96.2265783 26.1595891,97.5668079 L30.5034596,108.103017 L8.69515386,136.392628 C10.1035761,137.781121 11.9604695,138.686983 14.0212136,138.954286 L43.1496084,103.347244 L47.534249,104.019215 C47.9567757,102.730961 48.8648374,101.602347 50.2176639,101.015764 C52.7120538,99.9317005 55.5993193,101.056602 56.666755,103.525446 C57.7378972,105.99429 56.5852148,108.871515 54.0945314,109.955578 C51.6001415,111.043355 48.7091697,109.922166 47.6380275,107.453322 C47.4712407,107.063504 47.4527088,106.666261 47.3897004,106.265306 L44.087321,105.738125 L16.8158197,139.0768 L27.2307312,139.0768 L45.2103524,116.961155 L54.8098616,118.4833 C55.2805711,117.336123 56.18122,116.35601 57.4154426,115.821403 C59.9061261,114.737339 62.797098,115.854816 63.8682401,118.32366 C64.9356759,120.792504 63.7829935,123.677154 61.29231,124.761217 C58.7979202,125.845281 55.9069483,124.724092 54.8395126,122.255248 C54.6208365,121.746629 54.5504154,121.226872 54.5096453,120.703403 L46.1406523,119.366886 L30.1142903,139.0768 L99.2863519,139.0768 C104.438212,139.0768 108.615296,134.892759 108.615296,129.736031 L108.615296,73.2644728 C108.615296,72.8078295 108.544875,72.3660363 108.481866,71.9279557 L114.293461,71.9279557 L100.728131,55.0804158 Z" id="Fill-1"></path>
                        <path d="M60.6696392,123.320749 C62.3115629,122.60794 63.0639569,120.692265 62.3523331,119.047607 C61.6370028,117.399236 59.7282201,116.645589 58.08259,117.36211 C56.4406662,118.07492 55.6845659,119.990594 56.3998961,121.635252 C57.1152263,123.279911 59.024009,124.033558 60.6696392,123.320749" id="Fill-3"></path>
                        <path d="M26.2633675,92.5140309 C25.5480373,90.8693724 23.6355482,90.1157253 21.9936245,90.8285344 C20.3517007,91.545056 19.5993067,93.4570179 20.3109306,95.105389 C21.0262608,96.7500475 22.9350435,97.5074071 24.5769673,96.7908855 C26.2225974,96.0743638 26.9749914,94.1624019 26.2633675,92.5140309" id="Fill-4"></path>
                        <path d="M49.2021174,106.833326 C49.9137413,108.481697 51.8262303,109.235344 53.4681541,108.522535 C55.1137843,107.802301 55.8661782,105.890339 55.150848,104.241968 C54.4392242,102.59731 52.5267351,101.843662 50.8848113,102.556472 C49.2428875,103.276706 48.4867872,105.184955 49.2021174,106.833326" id="Fill-5"></path>
                        <path d="M90.5133642,64.3840595 C90.3021009,64.2615454 90.1575523,64.0796306 89.9833527,63.9199911 C88.9010914,62.9250284 88.5563986,61.3174954 89.3236181,59.9846909 C90.2057351,58.4402712 92.1738198,57.9056643 93.7156715,58.7892506 C95.2575231,59.6765494 95.791241,61.6479121 94.9054176,63.1923318 C94.7386308,63.485623 94.5014228,63.7009508 94.2716276,63.9199911 C93.2634938,64.8518405 91.7624123,65.1005811 90.5133642,64.3840595" id="Fill-6"></path>
                        <path d="M79.2237484,51.2861924 C77.6818967,50.3988936 75.7175184,50.9335004 74.831695,52.4816326 C73.9458715,54.0260523 74.4795894,55.9937024 76.0214411,56.8847138 C77.5632927,57.7683001 79.5313774,57.2336933 80.4172009,55.685561 C81.2993179,54.1411413 80.7656001,52.1734912 79.2237484,51.2861924" id="Fill-7"></path>
                        <path d="M93.7156715,58.7892506 C92.1738198,57.9056643 90.2057351,58.4402712 89.3236181,59.9846909 C88.5563986,61.3174954 88.9010914,62.9250284 89.9833527,63.9199911 C90.1575523,64.0796306 90.3021009,64.2615454 90.5133642,64.3840595 C91.7624123,65.1005811 93.2634938,64.8518405 94.2716276,63.9199911 C94.5014228,63.7009508 94.7386308,63.485623 94.9054176,63.1923318 C95.791241,61.6479121 95.2575231,59.6765494 93.7156715,58.7892506" id="Fill-8"></path>
                    </g>
                </g>
            </g>
        </g>
    </g>
</svg>