<?xml version="1.0" encoding="UTF-8"?>
<svg width="28px" height="29px" viewBox="0 0 28 29" version="1.1" xmlns="http://www.w3.org/2000/svg" xmlns:xlink="http://www.w3.org/1999/xlink">
    <!-- Generator: Sketch 50 (54983) - http://www.bohemiancoding.com/sketch -->
    <title>Group</title>
    <desc>Created with Sketch.</desc>
    <defs>
        <polygon id="path-1" points="0.101826667 0.340868852 27.552 0.340868852 27.552 28.3226396 0.101826667 28.3226396"></polygon>
    </defs>
    <g id="Page-1" stroke="none" stroke-width="1" fill="none" fill-rule="evenodd">
        <g id="Weekend-For-Good" transform="translate(-728.000000, -2420.000000)">
            <g id="Footer" transform="translate(0.000000, 2379.000000)">
                <g id="Group" transform="translate(728.000000, 41.000000)">
                    <g id="Group-10" transform="translate(0.000000, 0.258623)">
                        <mask id="mask-2" fill="white">
                            <use xlink:href="#path-1"></use>
                        </mask>
                        <g id="Clip-9"></g>
                        <path d="M25.05216,14.4058689 L25.0456267,14.4058689 C25.0456267,12.414377 25.10956,10.4200328 25.0316267,8.43139344 C24.90236,5.13680328 23.2946933,3.2047377 20.11296,3.05213115 C15.95356,2.85245902 11.7778267,2.97036066 7.60956,3.02313115 C6.35562667,3.03881967 5.18849333,3.48618033 4.24162667,4.40895082 C3.12582667,5.49716393 2.72402667,6.89201639 2.69462667,8.38337705 C2.62602667,11.8524426 2.62462667,15.3234098 2.61902667,18.7934262 C2.61762667,19.554082 2.67642667,20.3190164 2.76416,21.0744426 C3.05629333,23.5884098 4.47962667,25.198623 6.93196,25.588459 C8.28156,25.8038197 9.67036,25.8252131 11.0418933,25.830918 C13.88296,25.8428033 16.7258933,25.8356721 19.56556,25.7458197 C23.0748933,25.6340984 24.9224267,23.7334098 25.04096,20.1473934 C25.10396,18.2352951 25.05216,16.3198689 25.05216,14.4058689 M9.00022667,0.340868852 L18.7232267,0.340868852 C19.1002933,0.373672131 19.4764267,0.413131148 19.8534933,0.438803279 C21.7896933,0.570016393 23.5840267,1.07537705 25.06336,2.44122951 C26.7340267,3.9825082 27.4634267,5.97732787 27.5016933,8.1927377 C27.5726267,12.2993279 27.5646933,16.4087705 27.5040267,20.5158361 C27.4746267,22.4716721 26.8870933,24.2820328 25.55616,25.7752951 C24.0534933,27.460623 22.1116933,28.2117705 19.95336,28.2512295 C15.89196,28.3258689 11.8254267,28.3667541 7.76636,28.2469508 C3.48889333,28.1200164 0.759826667,25.4287213 0.26236,21.1153279 C0.192826667,20.5158361 0.15456,19.912541 0.101826667,19.3111475 L0.101826667,9.4055082 C0.134493333,9.00616393 0.17976,8.60777049 0.198893333,8.20747541 C0.40936,3.82990164 2.97276,1.01880328 7.23529333,0.503459016 C7.82189333,0.432622951 8.41176,0.394114754 9.00022667,0.340868852" id="Fill-8" fill="#FFFFFF" mask="url(#mask-2)"></path>
                    </g>
                    <path d="M9.27663333,14.5811525 C9.26076667,17.1469393 11.3029,19.2653656 13.8149667,19.2877098 C16.3340333,19.3105295 18.4191,17.2348902 18.4461667,14.6762344 C18.4737,12.0904803 16.4180333,9.9577918 13.8854333,9.94638197 C11.3682333,9.93497213 9.29296667,12.0220213 9.27663333,14.5811525 M13.8285,21.8145131 C9.91643333,21.8088082 6.78603333,18.5793492 6.79676667,14.559759 C6.80703333,10.6014967 9.9757,7.41387377 13.8947667,7.41957869 C17.8063667,7.42528361 20.9367667,10.655218 20.9269667,14.6743328 C20.9162333,18.6325951 17.7471,21.820218 13.8285,21.8145131" id="Fill-11" fill="#FFFFFF"></path>
                    <path d="M21.23996,5.45295082 C22.1616267,5.46768852 22.8770267,6.23214754 22.8574267,7.18011475 C22.8382933,8.0957541 22.09816,8.82645902 21.1956267,8.8207541 C20.27816,8.81504918 19.53896,8.04678689 19.5510933,7.11213115 C19.5632267,6.17462295 20.31316,5.43821311 21.23996,5.45295082" id="Fill-13" fill="#FFFFFF"></path>
                </g>
            </g>
        </g>
    </g>
</svg>