<?xml version="1.0" encoding="UTF-8"?>
<svg width="821px" height="70px" viewBox="0 0 821 70" version="1.1" xmlns="http://www.w3.org/2000/svg" xmlns:xlink="http://www.w3.org/1999/xlink">
    <!-- Generator: Sketch 53.2 (72643) - https://sketchapp.com -->
    <title>Group 3</title>
    <desc>Created with Sketch.</desc>
    <g id="Page-1" stroke="none" stroke-width="1" fill="none" fill-rule="evenodd">
        <g id="Page"></g>
        <g id="Group-3" fill-rule="nonzero">
            <g id="Group-18">
                <path d="M0.873882,68.1042966 L47.494984,68.1042966 L47.494984,56.4795686 L15.25423,56.4795686 L15.25423,4.30649661 L0.873882,4.30649661 L0.873882,68.1042966 Z M15.75423,55.9795686 L47.994984,55.9795686 L47.994984,68.6042966 L0.373882,68.6042966 L0.373882,3.80649661 L15.75423,3.80649661 L15.75423,55.9795686 Z M106.286284,56.6632766 L71.2899097,56.6632766 L71.2899097,41.2829286 L101.14246,41.2829286 L101.14246,30.2093246 L71.2899097,30.2093246 L71.2899097,15.7475166 L105.092182,15.7475166 L105.092182,4.30649661 L57.0014157,4.30649661 L57.0014157,68.1042966 L106.286284,68.1042966 L106.286284,56.6632766 Z M106.786284,56.1632766 L106.786284,68.6042966 L56.5014157,68.6042966 L56.5014157,3.80649661 L105.592182,3.80649661 L105.592182,16.2475166 L71.7899097,16.2475166 L71.7899097,29.7093246 L101.64246,29.7093246 L101.64246,41.7829286 L71.7899097,41.7829286 L71.7899097,56.1632766 L106.786284,56.1632766 Z M182.30235,68.1042966 L153.775619,4.30649661 L139.403327,4.30649661 L110.967736,68.1042966 L125.663183,68.1042966 L131.358131,54.3261966 L161.545042,54.3261966 L167.23999,68.1042966 L182.30235,68.1042966 Z M125.997544,68.6042966 L110.197462,68.6042966 L139.078767,3.80649661 L154.099756,3.80649661 L183.073629,68.6042966 L166.905629,68.6042966 L161.210681,54.8261966 L131.692492,54.8261966 L125.997544,68.6042966 Z M135.92758,43.5281546 L146.497513,18.0079547 L157.067447,43.5281546 L135.92758,43.5281546 Z M156.319168,43.0281546 L146.497513,19.3146105 L136.675859,43.0281546 L156.319168,43.0281546 Z M190.291049,68.1042966 L219.250621,68.1042966 C240.311013,68.1042966 254.456265,55.3918047 254.456265,36.2053966 C254.456265,17.0189885 240.311013,4.30649661 219.250621,4.30649661 L190.291049,4.30649661 L190.291049,68.1042966 Z M189.791049,3.80649661 L219.250621,3.80649661 C240.575956,3.80649661 254.956265,16.7302362 254.956265,36.2053966 C254.956265,55.680557 240.575956,68.6042966 219.250621,68.6042966 L189.791049,68.6042966 L189.791049,3.80649661 Z M204.671397,56.3877146 L204.671397,16.0230786 L218.515789,16.0230786 C231.518508,16.0230786 239.892209,23.8489677 239.892209,36.2053966 C239.892209,48.5618255 231.518508,56.3877146 218.515789,56.3877146 L204.671397,56.3877146 Z M218.515789,55.8877146 C231.249643,55.8877146 239.392209,48.2778394 239.392209,36.2053966 C239.392209,24.1329538 231.249643,16.5230786 218.515789,16.5230786 L205.171397,16.5230786 L205.171397,55.8877146 L218.515789,55.8877146 Z M341.543336,4.30649661 L293.45257,4.30649661 L293.45257,68.1042966 L307.832918,68.1042966 L307.832918,44.6815266 L337.593614,44.6815266 L337.593614,33.2405066 L307.832918,33.2405066 L307.832918,15.7475166 L341.543336,15.7475166 L341.543336,4.30649661 Z M308.332918,45.1815266 L308.332918,68.6042966 L292.95257,68.6042966 L292.95257,3.80649661 L342.043336,3.80649661 L342.043336,16.2475166 L308.332918,16.2475166 L308.332918,32.7405066 L338.093614,32.7405066 L338.093614,45.1815266 L308.332918,45.1815266 Z M383.040522,69.2065446 C403.149788,69.2065446 417.970604,55.2272035 417.970604,36.2053966 C417.970604,17.1835897 403.149788,3.20424861 383.040522,3.20424861 C362.905979,3.20424861 348.11044,17.2125019 348.11044,36.2053966 C348.11044,55.1982913 362.905979,69.2065446 383.040522,69.2065446 Z M383.040522,69.7065446 C362.635765,69.7065446 347.61044,55.4807323 347.61044,36.2053966 C347.61044,16.930061 362.635765,2.70424861 383.040522,2.70424861 C403.419608,2.70424861 418.470604,16.9007015 418.470604,36.2053966 C418.470604,55.5100918 403.419608,69.7065446 383.040522,69.7065446 Z M383.040522,57.0306926 C371.256027,57.0306926 362.674496,48.3943281 362.674496,36.2053966 C362.674496,24.0164652 371.256027,15.3801006 383.040522,15.3801006 C394.825018,15.3801006 403.406548,24.0164652 403.406548,36.2053966 C403.406548,48.3943281 394.825018,57.0306926 383.040522,57.0306926 Z M383.040522,56.5306926 C394.54816,56.5306926 402.906548,48.1188961 402.906548,36.2053966 C402.906548,24.2918971 394.54816,15.8801006 383.040522,15.8801006 C371.532884,15.8801006 363.174496,24.2918971 363.174496,36.2053966 C363.174496,48.1188961 371.532884,56.5306926 383.040522,56.5306926 Z M472.222144,47.5783409 L472.504432,47.4573604 C480.905732,43.8568031 485.579888,36.786253 485.579888,27.3874126 C485.579888,13.1405749 474.984028,4.30649661 457.906272,4.30649661 L430.32451,4.30649661 L430.32451,68.1042966 L444.704858,68.1042966 L444.704858,50.1927666 L458.772092,50.1927666 L471.172382,68.1042966 L486.5447,68.1042966 L472.222144,47.5783409 Z M487.50328,68.6042966 L470.910406,68.6042966 L458.510116,50.6927666 L445.204858,50.6927666 L445.204858,68.6042966 L429.82451,68.6042966 L429.82451,3.80649661 L457.906272,3.80649661 C475.242101,3.80649661 486.079888,12.8422758 486.079888,27.3874126 C486.079888,36.8811502 481.390962,44.0782347 472.982672,47.7945076 L487.50328,68.6042966 Z M471.015832,27.3874126 C471.015832,34.6906687 466.096585,38.8436006 457.079586,38.8436006 L444.704858,38.8436006 L444.704858,15.9312246 L457.079586,15.9312246 C466.136068,15.9312246 471.015832,20.0263031 471.015832,27.3874126 Z M457.079586,38.3436006 C465.837429,38.3436006 470.515832,34.3939942 470.515832,27.3874126 C470.515832,20.3237515 465.877432,16.4312246 457.079586,16.4312246 L445.204858,16.4312246 L445.204858,38.3436006 L457.079586,38.3436006 Z M568.574259,54.1746431 L568.442464,54.2453627 C564.835814,56.1806379 561.100048,57.0306926 556.750655,57.0306926 C544.345094,57.0306926 535.649797,48.4169143 535.649797,36.2053966 C535.649797,23.8485002 544.306384,15.3801006 556.934363,15.3801006 C563.5046,15.3801006 568.919269,17.6920327 573.571226,22.535919 L582.76503,14.0493311 C576.574901,6.97495007 567.342762,3.20424861 556.199531,3.20424861 C535.805133,3.20424861 521.085741,17.0087238 521.085741,36.2053966 C521.085741,55.3639169 535.764863,69.2065446 555.923969,69.2065446 C565.26461,69.2065446 574.823166,66.2718215 581.668651,61.1565631 L581.668651,35.4450026 L568.574259,35.4450026 L568.574259,54.1746431 Z M568.074259,34.9450026 L582.168651,34.9450026 L582.168651,61.2815386 L582.069066,61.481227 C575.126664,66.710569 565.414709,69.7065446 555.923969,69.7065446 C535.495067,69.7065446 520.585741,55.6468314 520.585741,36.2053966 C520.585741,16.7251544 535.535908,2.70424861 556.199531,2.70424861 C567.577312,2.70424861 577.011767,6.59745403 583.302228,13.9054901 L583.459756,14.0884997 L573.547892,23.2379128 L573.378184,23.0582225 C568.782346,18.1920413 563.447098,15.8801006 556.934363,15.8801006 C544.580096,15.8801006 536.149797,24.1271322 536.149797,36.2053966 C536.149797,48.1397122 544.620188,56.5306926 556.750655,56.5306926 C560.967917,56.5306926 564.584771,55.7196325 568.074259,53.8749778 L568.074259,34.9450026 Z M627.482975,69.2065446 C647.592241,69.2065446 662.413057,55.2272035 662.413057,36.2053966 C662.413057,17.1835897 647.592241,3.20424861 627.482975,3.20424861 C607.348432,3.20424861 592.552893,17.2125019 592.552893,36.2053966 C592.552893,55.1982913 607.348432,69.2065446 627.482975,69.2065446 Z M627.482975,69.7065446 C607.078218,69.7065446 592.052893,55.4807323 592.052893,36.2053966 C592.052893,16.930061 607.078218,2.70424861 627.482975,2.70424861 C647.86206,2.70424861 662.913057,16.9007015 662.913057,36.2053966 C662.913057,55.5100918 647.86206,69.7065446 627.482975,69.7065446 Z M627.482975,57.0306926 C615.698479,57.0306926 607.116949,48.3943281 607.116949,36.2053966 C607.116949,24.0164652 615.698479,15.3801006 627.482975,15.3801006 C639.26747,15.3801006 647.849001,24.0164652 647.849001,36.2053966 C647.849001,48.3943281 639.26747,57.0306926 627.482975,57.0306926 Z M627.482975,56.5306926 C638.990613,56.5306926 647.349001,48.1188961 647.349001,36.2053966 C647.349001,24.2918971 638.990613,15.8801006 627.482975,15.8801006 C615.975337,15.8801006 607.616949,24.2918971 607.616949,36.2053966 C607.616949,48.1188961 615.975337,56.5306926 627.482975,56.5306926 Z M705.655469,69.2065446 C725.764735,69.2065446 740.585551,55.2272035 740.585551,36.2053966 C740.585551,17.1835897 725.764735,3.20424861 705.655469,3.20424861 C685.520926,3.20424861 670.725387,17.2125019 670.725387,36.2053966 C670.725387,55.1982913 685.520926,69.2065446 705.655469,69.2065446 Z M705.655469,69.7065446 C685.250712,69.7065446 670.225387,55.4807323 670.225387,36.2053966 C670.225387,16.930061 685.250712,2.70424861 705.655469,2.70424861 C726.034554,2.70424861 741.085551,16.9007015 741.085551,36.2053966 C741.085551,55.5100918 726.034554,69.7065446 705.655469,69.7065446 Z M705.655469,57.0306926 C693.870973,57.0306926 685.289443,48.3943281 685.289443,36.2053966 C685.289443,24.0164652 693.870973,15.3801006 705.655469,15.3801006 C717.439964,15.3801006 726.021495,24.0164652 726.021495,36.2053966 C726.021495,48.3943281 717.439964,57.0306926 705.655469,57.0306926 Z M705.655469,56.5306926 C717.163106,56.5306926 725.521495,48.1188961 725.521495,36.2053966 C725.521495,24.2918971 717.163106,15.8801006 705.655469,15.8801006 C694.147831,15.8801006 685.789443,24.2918971 685.789443,36.2053966 C685.789443,48.1188961 694.147831,56.5306926 705.655469,56.5306926 Z M781.899028,68.1042966 C802.95942,68.1042966 817.104672,55.3918047 817.104672,36.2053966 C817.104672,17.0189885 802.95942,4.30649661 781.899028,4.30649661 L752.939456,4.30649661 L752.939456,68.1042966 L781.899028,68.1042966 Z M752.439456,3.80649661 L781.899028,3.80649661 C803.224364,3.80649661 817.604672,16.7302362 817.604672,36.2053966 C817.604672,55.680557 803.224364,68.6042966 781.899028,68.6042966 L752.439456,68.6042966 L752.439456,3.80649661 Z M767.319804,56.3877146 L767.319804,16.0230786 L781.164196,16.0230786 C794.166915,16.0230786 802.540616,23.8489677 802.540616,36.2053966 C802.540616,48.5618255 794.166915,56.3877146 781.164196,56.3877146 L767.319804,56.3877146 Z M781.164196,55.8877146 C793.89805,55.8877146 802.040616,48.2778394 802.040616,36.2053966 C802.040616,24.1329538 793.89805,16.5230786 781.164196,16.5230786 L767.819804,16.5230786 L767.819804,55.8877146 L781.164196,55.8877146 Z" id="LEADFORGOOD" fill="#F67A70"></path>
                <path d="M4.1963042,66.1035789 L4.1963042,1.11410526 L19.0770804,1.11410526 L19.0770804,53.8484211 L51.3187622,53.8484211 L51.3187622,66.1035789 L4.1963042,66.1035789 Z M75.1143727,54.0341053 L110.111754,54.0341053 L110.111754,66.1035789 L60.3254531,66.1035789 L60.3254531,1.11410526 L108.917617,1.11410526 L108.917617,13.1835789 L75.1143727,13.1835789 L75.1143727,27.2955789 L104.967782,27.2955789 L104.967782,38.9936842 L75.1143727,38.9936842 L75.1143727,54.0341053 Z M170.650022,66.1035789 L164.95491,52.1772632 L135.101501,52.1772632 L129.406389,66.1035789 L114.158186,66.1035789 L142.817459,1.11410526 L157.514522,1.11410526 L186.265651,66.1035789 L170.650022,66.1035789 Z M139.878046,40.7576842 L160.270221,40.7576842 L150.074134,15.876 L139.878046,40.7576842 Z M193.618922,66.1035789 L193.618922,1.11410526 L222.829335,1.11410526 C243.864506,1.11410526 258.285999,13.9263158 258.285999,33.6088421 C258.285999,53.2913684 243.864506,66.1035789 222.829335,66.1035789 L193.618922,66.1035789 Z M208.499699,53.7555789 L222.094482,53.7555789 C234.862555,53.7555789 243.22151,46.0496842 243.22151,33.6088421 C243.22151,21.168 234.862555,13.4621053 222.094482,13.4621053 L208.499699,13.4621053 L208.499699,53.7555789 Z M345.375577,13.1835789 L311.664189,13.1835789 L311.664189,30.3593684 L341.425741,30.3593684 L341.425741,42.4288421 L311.664189,42.4288421 L311.664189,66.1035789 L296.783413,66.1035789 L296.783413,1.11410526 L345.375577,1.11410526 L345.375577,13.1835789 Z M386.62395,67.2176842 C366.323631,67.2176842 351.442855,52.92 351.442855,33.6088421 C351.442855,14.2976842 366.323631,0 386.62395,0 C406.832411,0 421.805044,14.2048421 421.805044,33.6088421 C421.805044,53.0128421 406.832411,67.2176842 386.62395,67.2176842 Z M386.62395,54.4054737 C398.10603,54.4054737 406.740555,45.9568421 406.740555,33.6088421 C406.740555,21.2608421 398.10603,12.8122105 386.62395,12.8122105 C375.141869,12.8122105 366.507345,21.2608421 366.507345,33.6088421 C366.507345,45.9568421 375.141869,54.4054737 386.62395,54.4054737 Z M490.61041,66.1035789 L474.627354,66.1035789 L462.226707,47.9993684 L448.540067,47.9993684 L448.540067,66.1035789 L433.659291,66.1035789 L433.659291,1.11410526 L461.491854,1.11410526 C478.669046,1.11410526 489.416273,10.1197895 489.416273,24.696 C489.416273,34.4444211 484.547871,41.5932632 476.188917,45.2141053 L490.61041,66.1035789 Z M474.351784,24.696 C474.351784,17.5471579 469.758952,13.3692632 460.665144,13.3692632 L448.540067,13.3692632 L448.540067,36.0227368 L460.665144,36.0227368 C469.758952,36.0227368 474.351784,31.752 474.351784,24.696 Z M571.913019,51.6202105 L571.913019,32.5875789 L585.507802,32.5875789 L585.507802,58.9547368 C578.434841,64.3395789 568.698036,67.2176842 559.512372,67.2176842 C539.30391,67.2176842 524.423134,53.1985263 524.423134,33.6088421 C524.423134,14.0191579 539.30391,0 559.787942,0 C571.086309,0 580.455687,3.89936842 586.701938,11.2338947 L577.148848,20.1467368 C572.464159,15.1332632 567.044617,12.8122105 560.522795,12.8122105 C548.030292,12.8122105 539.487624,21.2608421 539.487624,33.6088421 C539.487624,45.7711579 548.030292,54.4054737 560.339082,54.4054737 C564.380774,54.4054737 568.146896,53.6627368 571.913019,51.6202105 Z M631.073437,67.2176842 C610.773119,67.2176842 595.892343,52.92 595.892343,33.6088421 C595.892343,14.2976842 610.773119,0 631.073437,0 C651.281899,0 666.254531,14.2048421 666.254531,33.6088421 C666.254531,53.0128421 651.281899,67.2176842 631.073437,67.2176842 Z M631.073437,54.4054737 C642.555517,54.4054737 651.190042,45.9568421 651.190042,33.6088421 C651.190042,21.2608421 642.555517,12.8122105 631.073437,12.8122105 C619.591357,12.8122105 610.956832,21.2608421 610.956832,33.6088421 C610.956832,45.9568421 619.591357,54.4054737 631.073437,54.4054737 Z M709.24818,67.2176842 C688.947862,67.2176842 674.067086,52.92 674.067086,33.6088421 C674.067086,14.2976842 688.947862,0 709.24818,0 C729.456642,0 744.429275,14.2048421 744.429275,33.6088421 C744.429275,53.0128421 729.456642,67.2176842 709.24818,67.2176842 Z M709.24818,54.4054737 C720.730261,54.4054737 729.364785,45.9568421 729.364785,33.6088421 C729.364785,21.2608421 720.730261,12.8122105 709.24818,12.8122105 C697.7661,12.8122105 689.131576,21.2608421 689.131576,33.6088421 C689.131576,45.9568421 697.7661,54.4054737 709.24818,54.4054737 Z M756.283522,66.1035789 L756.283522,1.11410526 L785.493934,1.11410526 C806.529106,1.11410526 820.950599,13.9263158 820.950599,33.6088421 C820.950599,53.2913684 806.529106,66.1035789 785.493934,66.1035789 L756.283522,66.1035789 Z M771.164298,53.7555789 L784.759081,53.7555789 C797.527155,53.7555789 805.886109,46.0496842 805.886109,33.6088421 C805.886109,21.168 797.527155,13.4621053 784.759081,13.4621053 L771.164298,13.4621053 L771.164298,53.7555789 Z" id="LEADFORGOOD" fill="#FFFFFF"></path>
            </g>
        </g>
    </g>
</svg>