<?xml version="1.0" encoding="UTF-8"?>
<svg width="29px" height="29px" viewBox="0 0 29 29" version="1.1" xmlns="http://www.w3.org/2000/svg" xmlns:xlink="http://www.w3.org/1999/xlink">
    <!-- Generator: Sketch 50 (54983) - http://www.bohemiancoding.com/sketch -->
    <title>Fill 6</title>
    <desc>Created with Sketch.</desc>
    <defs></defs>
    <g id="Page-1" stroke="none" stroke-width="1" fill="none" fill-rule="evenodd">
        <g id="Weekend-For-Good" transform="translate(-770.000000, -2420.000000)" fill="#FFFFFF">
            <g id="Footer" transform="translate(0.000000, 2379.000000)">
                <path d="M776.597249,45.8090145 C776.524723,45.8123548 776.419751,45.812832 776.316687,45.8242843 C776.204081,45.8362138 776.091951,45.8543466 775.980776,45.876774 C774.887633,46.0972309 774.157599,46.9618801 774.158553,48.0632103 C774.159507,49.0156605 774.588462,49.7199774 775.456392,50.1293973 C776.018948,50.3942319 776.615858,50.4166594 777.218971,50.2997504 C777.736198,50.1995427 778.18567,49.9681107 778.533987,49.5677571 C778.990617,49.0433369 779.151892,48.4272982 779.05026,47.7463631 C778.951491,47.0826065 778.62894,46.551983 778.055887,46.187895 C777.621206,45.9116081 777.136902,45.812832 776.597249,45.8090145 Z M778.950059,65.6153022 L778.950059,52.1354598 L774.43673,52.1354598 L774.43673,52.2332816 C774.437684,52.8588638 774.438161,53.4844461 774.44007,54.1100284 C774.442933,55.4136826 774.447704,56.7168597 774.45009,58.0200368 C774.454384,60.5132995 774.458201,63.0065621 774.459633,65.4998248 C774.459633,65.590966 774.479673,65.6176881 774.575102,65.6176881 C776.000816,65.6143478 777.427007,65.6153022 778.853198,65.6153022 L778.950059,65.6153022 Z M790.040378,65.6086217 L794.581859,65.6086217 L794.581859,65.484555 C794.581859,62.9698193 794.585199,60.4550836 794.578996,57.9403478 C794.577564,57.5027743 794.551321,57.0637692 794.510764,56.6281043 C794.448735,55.9509867 794.287459,55.2953421 794.015963,54.670237 C793.461519,53.3923504 792.543489,52.505751 791.199844,52.0910821 C790.357203,51.8305421 789.497385,51.7890275 788.628024,51.9269323 C787.995327,52.02714 787.415117,52.2580949 786.896936,52.6388841 C786.423129,52.9867479 786.053818,53.4290933 785.733175,53.9162935 C785.715044,53.9444471 785.695003,53.9711691 785.675918,53.9983684 C785.664466,53.9955053 785.653015,53.992165 785.641563,53.9893019 L785.641563,52.133551 L781.08863,52.133551 L781.08863,65.6062358 L785.661126,65.6062358 L785.661126,65.4778745 C785.661126,62.9325993 785.66208,60.3868469 785.660649,57.8415717 C785.660172,57.3701184 785.755601,56.9263415 785.994174,56.5140584 C786.428378,55.7620236 787.055348,55.3258816 787.940455,55.308226 C788.335056,55.3005911 788.715819,55.3626244 789.059841,55.5725834 C789.451579,55.8116503 789.676792,56.1762154 789.818981,56.5994736 C789.988846,57.1048066 790.037992,57.6292268 790.038469,58.1574645 C790.041809,60.5987146 790.040378,63.0399647 790.040378,65.4812148 L790.040378,65.6086217 Z M775.117618,41 L793.868047,41 C794.01644,41.0176556 794.16531,41.0338797 794.313702,41.0539213 C795.266087,41.1846684 796.128768,41.5392128 796.880274,42.1356871 C798.280222,43.2470381 798.99451,44.70673 798.996419,46.4947214 C799.002622,52.4966846 798.999282,58.4981706 798.997373,64.5001338 C798.997373,64.7019807 798.987353,64.904782 798.966836,65.1056745 C798.848981,66.2656978 798.40762,67.2887705 797.630348,68.15676 C796.547703,69.3659327 795.184495,69.991515 793.563628,69.9943781 C787.519135,70.0039216 781.474642,69.999627 775.430626,69.9939009 C775.092329,69.9934237 774.750215,69.9566809 774.417644,69.8960791 C773.454285,69.7199999 772.599238,69.3043766 771.866818,68.6535038 C770.668226,67.5874849 770.013581,66.2470878 770.009286,64.6423333 C769.993541,58.5578181 770.001652,52.4733028 770.005946,46.3887876 C770.006423,46.0929363 770.033144,45.7932676 770.08563,45.5021882 C770.333746,44.1207536 771.016066,42.9946101 772.123046,42.1318697 C772.8798,41.5415987 773.738664,41.1837141 774.690572,41.0539213 C774.832761,41.0343569 774.975428,41.0176556 775.117618,41 Z" id="Fill-6"></path>
            </g>
        </g>
    </g>
</svg>