<?xml version="1.0" encoding="UTF-8"?>
<svg width="34px" height="27px" viewBox="0 0 34 27" version="1.1" xmlns="http://www.w3.org/2000/svg" xmlns:xlink="http://www.w3.org/1999/xlink">
    <!-- Generator: Sketch 50 (54983) - http://www.bohemiancoding.com/sketch -->
    <title>Fill 1</title>
    <desc>Created with Sketch.</desc>
    <defs></defs>
    <g id="Page-1" stroke="none" stroke-width="1" fill="none" fill-rule="evenodd">
        <g id="Weekend-For-Good" transform="translate(-683.000000, -2421.000000)" fill="#FFFFFF">
            <g id="Footer" transform="translate(0.000000, 2379.000000)">
                <path d="M683,65.9505724 C686.819659,66.3165106 690.246002,65.4026649 693.284767,63.1314486 C691.802463,63.0734584 690.461096,62.6311331 689.274597,61.7660793 C688.089327,60.9018253 687.271561,59.7760155 686.792208,58.3866502 C687.843096,58.5718189 688.87145,58.5430238 689.892019,58.2706698 C688.279429,57.9019321 686.934375,57.114865 685.893321,55.8538781 C684.849808,54.5900916 684.348741,53.1387368 684.342186,51.4962142 C684.835878,51.7541707 685.333667,51.9605358 685.858496,52.101312 C686.385374,52.2424882 686.920036,52.3268739 687.494849,52.3436711 C685.980997,51.3034468 684.987058,49.9392773 684.581453,48.194372 C684.177486,46.4546659 684.448709,44.8065444 685.337764,43.252007 C689.11891,47.6016722 693.897683,49.9900687 699.736766,50.3828023 C699.698254,50.1612398 699.658922,49.9672725 699.631882,49.7713056 C699.430718,48.3175512 699.665068,46.933785 700.369347,45.6360042 C701.074855,44.335424 702.109764,43.3551896 703.460144,42.7001002 C704.493415,42.1993848 705.590599,41.9686238 706.743912,42.0034179 C708.405256,42.0538094 709.865437,42.6137148 711.127731,43.6659371 C711.288744,43.8003144 711.433779,43.9526886 711.591514,44.0910652 C711.622242,44.1182606 711.68083,44.1374574 711.720571,44.1294587 C713.215576,43.8395077 714.620856,43.3175959 715.940918,42.5749214 C715.972466,42.5573243 716.004422,42.5397273 716.036379,42.5229302 C716.042525,42.5197307 716.050719,42.5209305 716.07653,42.517731 C715.523841,44.1214601 714.50614,45.3524521 713.055792,46.2554996 C714.419692,46.0987261 715.727463,45.7479853 717,45.2296729 C716.872992,45.4044434 716.749262,45.5820134 716.618157,45.7539843 C715.766385,46.8741951 714.765072,47.8476306 713.607661,48.6674921 C713.561365,48.7002866 713.531866,48.7298816 713.535554,48.7962704 C713.575295,49.5605412 713.55481,50.3236123 713.491716,51.0862835 C713.360611,52.6820139 713.023425,54.2361514 712.503922,55.753495 C711.888139,57.5519912 711.033499,59.2357068 709.935086,60.8002424 C709.052996,62.0568302 708.036524,63.1990372 706.876655,64.2196648 C705.587321,65.3542731 704.168111,66.3001133 702.61124,67.0487868 C700.970791,67.8378535 699.246762,68.3781623 697.445299,68.6853104 C695.94169,68.9416671 694.428248,69.0420501 692.902925,68.9840599 C690.24887,68.882877 687.718956,68.2857779 685.310314,67.1939623 C684.537614,66.8436215 683.793184,66.4436891 683.072517,66.0005639 C683.05449,65.9893658 683.038102,65.976568 683,65.9505724" id="Fill-1"></path>
            </g>
        </g>
    </g>
</svg>